<svg width="27534" height="16563" viewBox="0 0 27534 16563" fill="none" xmlns="http://www.w3.org/2000/svg">
<path d="M23096 2295.32C23127 1520.11 22618.8 870.347 21960.9 844.038C21303 817.728 20744.5 1424.83 20713.5 2200.05C20682.5 2975.26 21190.7 3625.02 21848.6 3651.33C22506.5 3677.64 23065 3070.53 23096 2295.32Z" fill="#EBEBEB"/>
<path d="M22733.6 2286.75C22699.8 2992.74 22228.8 3554.5 21647.7 3623.2C21709.9 3638.34 21773.5 3647.49 21837.5 3650.53C22495.3 3684.31 23058.5 3083.46 23095.7 2308.39C23132.9 1533.32 22630 878.187 21972.2 844.406C21914.8 841.536 21857.3 843.44 21800.3 850.099C22361.6 986.363 22767 1587.97 22733.6 2286.75Z" fill="#E0E0E0"/>
<path d="M13425.4 16028.6C14197.3 15953.1 14793.4 15588.3 14756.8 15213.8C14720.1 14839.3 14064.6 14596.9 13292.7 14672.5C12520.7 14748 11924.7 15112.9 11961.3 15487.4C11998 15861.9 12653.5 16104.2 13425.4 16028.6Z" fill="#EBEBEB"/>
<path d="M13372 15823.9C12667.6 15879.7 12081.5 15672.1 11977.5 15348.3C11966.4 15384.1 11961 15421.3 11961.6 15458.8C11968 15836.1 12599.2 16092.7 13372 16031.5C14144.8 15970.4 14766.6 15615.9 14760.1 15238.6C14759.5 15205.6 14754 15172.9 14743.8 15141.5C14641.7 15475.9 14068.2 15770 13372 15823.9Z" fill="#E0E0E0"/>
<path d="M3483.61 13959.4C3876.52 13630.3 3880.78 12988.3 3493.11 12525.5C3105.45 12062.7 2472.66 11954.3 2079.75 12283.4C1686.83 12612.5 1682.57 13254.5 2070.24 13717.3C2457.9 14180.2 3090.69 14288.6 3483.61 13959.4Z" fill="#EBEBEB"/>
<path d="M2288.76 13538.9C2645.55 13956.5 3202.75 14080.2 3593.32 13846C3562.14 13884.8 3527.45 13920.6 3489.7 13953C3100.65 14286.3 2467.91 14184.2 2076.58 13725.3C1685.25 13266.4 1683.35 12622.7 2072.41 12289.4C2106.46 12260.3 2142.9 12234.2 2181.34 12211.2C1900.84 12559.7 1936.9 13124.5 2288.76 13538.9Z" fill="#E0E0E0"/>
<path d="M2143.07 8397.76C2148.84 8004.12 1935.34 7681.82 1666.21 7677.87C1397.08 7673.93 1174.22 7989.83 1168.45 8383.47C1162.68 8777.11 1376.18 9099.42 1645.31 9103.36C1914.44 9107.31 2137.3 8791.4 2143.07 8397.76Z" fill="#EBEBEB"/>
<path d="M1316.69 8379.14C1308.72 8737.83 1483.7 9040.34 1718.27 9096.9C1693.32 9102.08 1667.84 9104.38 1642.36 9103.73C1373.25 9095.76 1161.83 8770.09 1170.56 8376.49C1179.29 7982.88 1403.99 7670.12 1673.11 7678.09C1696.66 7678.74 1720.07 7681.92 1742.94 7687.58C1507.99 7735.02 1324.29 8024.25 1316.69 8379.14Z" fill="#E0E0E0"/>
<path d="M24516.4 11587.6C24312.6 11972.5 24412.4 12424.5 24740 12596.5C25067.6 12768.4 25499.1 12596.5 25702.2 12211.2C25905.3 11826 25806.2 11374.3 25479 11202C25151.8 11029.6 24721 11202.3 24516.4 11587.6Z" fill="#EBEBEB"/>
<path d="M25521.5 12118.2C25707.5 11767.1 25640.7 11359.1 25379.6 11161C25413.9 11171.6 25447.2 11185.3 25479 11202C25806.2 11374.3 25906.4 11826 25702.2 12211.2C25498 12596.5 25067.2 12768.8 24740 12597.6C24711.4 12582.7 24684 12565.3 24658.4 12545.6C24968.9 12639.8 25337.4 12465.5 25521.5 12118.2Z" fill="#E0E0E0"/>
<path d="M7408.84 2233.23C7608.67 1663.54 7378.6 1064.18 6894.96 894.521C6411.31 724.866 5857.23 1049.16 5657.4 1618.86C5457.56 2188.55 5687.63 2787.91 6171.27 2957.57C6654.92 3127.22 7209 2802.93 7408.84 2233.23Z" fill="#EBEBEB"/>
<path d="M5852.87 1681.35C5674.85 2201.73 5852.87 2744.13 6255.21 2959.34C6206.06 2952.38 6157.66 2940.94 6110.59 2925.18C5625.13 2760.83 5389.42 2166.05 5585.28 1593.29C5781.13 1020.52 6332.26 692.201 6817.72 856.173C6860.06 870.738 6901.19 888.633 6940.7 909.692C6494.71 847.064 6028.99 1165.9 5852.87 1681.35Z" fill="#E0E0E0"/>
<path d="M19198.7 1876.06L19358.5 1970.95C19363.2 1973.87 19367 1977.99 19369.6 1982.89C19372.1 1987.79 19373.3 1993.29 19373 1998.8C19372.7 2004.32 19370.9 2009.65 19367.8 2014.23C19364.7 2018.82 19360.5 2022.48 19355.5 2024.85L19186.2 2109.5C19180.9 2112.16 19176.4 2116.23 19173.3 2121.26L19074.2 2282.96C19071.6 2287.79 19067.7 2291.81 19062.9 2294.62C19058.2 2297.42 19052.8 2298.9 19047.3 2298.9C19041.8 2298.9 19036.4 2297.42 19031.6 2294.62C19026.9 2291.81 19023 2287.79 19020.3 2282.96L18939.5 2115.95C18936.9 2110.67 18932.8 2106.31 18927.7 2103.42L18768.3 2007.77C18763.6 2004.86 18759.8 2000.74 18757.2 1995.83C18754.7 1990.93 18753.5 1985.44 18753.8 1979.92C18754.1 1974.41 18755.9 1969.08 18759 1964.49C18762.1 1959.91 18766.4 1956.24 18771.3 1953.87L18940.6 1869.23C18945.9 1866.57 18950.4 1862.5 18953.5 1857.46L19052.2 1696.15C19054.9 1691.33 19058.9 1687.32 19063.6 1684.53C19068.4 1681.74 19073.8 1680.26 19079.4 1680.26C19084.9 1680.26 19090.3 1681.74 19095.1 1684.53C19099.9 1687.32 19103.8 1691.33 19106.5 1696.15L19187.4 1863.16C19189.9 1868.43 19193.8 1872.9 19198.7 1876.06Z" fill="#E0E0E0"/>
<path d="M3754.64 15611.7L3914.43 15706.6C3919.13 15709.6 3922.95 15713.7 3925.49 15718.6C3928.04 15723.5 3929.22 15729 3928.91 15734.5C3928.6 15740 3926.81 15745.3 3923.73 15749.9C3920.65 15754.5 3916.39 15758.2 3911.4 15760.5L3742.11 15845.2C3736.81 15847.8 3732.34 15851.9 3729.2 15856.9L3630.14 16018.6C3627.32 16023.4 3623.28 16027.3 3618.44 16029.9C3613.6 16032.6 3608.14 16033.9 3602.63 16033.7C3597.12 16033.5 3591.76 16031.8 3587.12 16028.8C3582.47 16025.8 3578.72 16021.7 3576.24 16016.7L3495.39 15849.7C3492.72 15844.5 3488.65 15840.2 3483.63 15837.2L3324.21 15742.3C3319.52 15739.4 3315.69 15735.3 3313.15 15730.4C3310.6 15725.5 3309.42 15720 3309.73 15714.5C3310.04 15709 3311.83 15703.6 3314.91 15699C3317.99 15694.5 3322.26 15690.8 3327.25 15688.4L3496.53 15603.4C3501.92 15600.9 3506.42 15596.8 3509.44 15591.6L3608.12 15430.3C3610.78 15425.5 3614.68 15421.5 3619.42 15418.7C3624.16 15415.8 3629.56 15414.4 3635.07 15414.4C3640.58 15414.4 3645.99 15415.8 3650.73 15418.7C3655.47 15421.5 3659.37 15425.5 3662.02 15430.3L3743.25 15597.7C3745.51 15603.4 3749.49 15608.3 3754.64 15611.7Z" fill="#E0E0E0"/>
<path d="M17841.8 15499L18001.6 15593.9C18006.3 15596.8 18010.1 15600.9 18012.7 15605.8C18015.2 15610.7 18016.4 15616.2 18016.1 15621.8C18015.8 15627.3 18014 15632.6 18010.9 15637.2C18007.8 15641.8 18003.5 15645.4 17998.6 15647.8L17829.3 15732.8C17823.9 15735.4 17819.4 15739.5 17816.4 15744.6L17717.3 15905.9C17714.6 15910.7 17710.7 15914.8 17706 15917.6C17701.3 15920.4 17695.9 15921.9 17690.3 15921.9C17684.8 15921.9 17679.4 15920.4 17674.7 15917.6C17670 15914.8 17666 15910.7 17663.4 15905.9L17582.6 15738.5C17579.9 15733.3 17575.8 15729 17570.8 15726L17411.4 15631.1C17406.7 15628.2 17402.9 15624.1 17400.3 15619.2C17397.8 15614.3 17396.6 15608.8 17396.9 15603.3C17397.2 15597.7 17399 15592.4 17402.1 15587.8C17405.2 15583.2 17409.4 15579.6 17414.4 15577.2L17583.7 15492.6C17589 15489.9 17593.5 15485.8 17596.6 15480.8L17695.3 15319.1C17698 15314.3 17701.9 15310.3 17706.7 15307.5C17711.5 15304.7 17716.9 15303.2 17722.4 15303.2C17727.9 15303.2 17733.4 15304.7 17738.1 15307.5C17742.9 15310.3 17746.9 15314.3 17749.6 15319.1L17830.4 15486.1C17832.9 15491.4 17836.8 15495.9 17841.8 15499Z" fill="#E0E0E0"/>
<path d="M24793.9 15362L24953.3 15457.3C24958 15460.1 24961.9 15464.1 24964.5 15469C24967.1 15473.9 24968.3 15479.3 24968 15484.8C24967.8 15490.3 24966 15495.6 24962.9 15500.2C24959.9 15504.8 24955.6 15508.4 24950.7 15510.8L24781 15596.2C24775.7 15598.8 24771.2 15602.9 24768.1 15607.9L24669.4 15769.3C24666.8 15774.1 24662.8 15778.1 24658.1 15780.9C24653.4 15783.7 24648 15785.2 24642.5 15785.2C24636.9 15785.2 24631.5 15783.7 24626.8 15780.9C24622.1 15778.1 24618.2 15774.1 24615.5 15769.3L24534.3 15602.3C24531.9 15596.9 24527.9 15592.4 24522.9 15589.3L24363.5 15494.5C24358.8 15491.6 24354.9 15487.5 24352.3 15482.6C24349.8 15477.7 24348.5 15472.2 24348.8 15466.7C24349.1 15461.2 24350.8 15455.9 24353.9 15451.3C24356.9 15446.7 24361.2 15443 24366.1 15440.6L24535.4 15355.9C24540.7 15353.3 24545.2 15349.2 24548.3 15344.1L24647.4 15182.5C24650.2 15177.7 24654.2 15173.8 24659.1 15171.2C24663.9 15168.5 24669.4 15167.2 24674.9 15167.4C24680.4 15167.6 24685.8 15169.3 24690.4 15172.3C24695.1 15175.3 24698.8 15179.4 24701.3 15184.4L24782.5 15351.4C24785.2 15355.9 24789.2 15359.6 24793.9 15362Z" fill="#E0E0E0"/>
<path d="M7762.46 3715.81L7921.88 3810.7C7926.58 3813.59 7930.43 3817.68 7933.01 3822.56C7935.59 3827.44 7936.8 3832.93 7936.53 3838.44C7936.26 3843.95 7934.51 3849.29 7931.46 3853.9C7928.42 3858.5 7924.19 3862.2 7919.22 3864.6L7749.55 3949.63C7744.24 3952.27 7739.77 3956.34 7736.65 3961.39L7637.96 4122.71C7635.31 4127.53 7631.41 4131.56 7626.67 4134.37C7621.93 4137.17 7616.52 4138.65 7611.01 4138.65C7605.5 4138.65 7600.1 4137.17 7595.35 4134.37C7590.61 4131.56 7586.71 4127.53 7584.06 4122.71L7502.84 3955.32C7500.32 3950.14 7496.37 3945.79 7491.45 3942.79L7332.03 3847.9C7327.32 3845.02 7323.48 3840.92 7320.9 3836.04C7318.32 3831.16 7317.1 3825.68 7317.37 3820.16C7317.65 3814.65 7319.4 3809.31 7322.44 3804.71C7325.49 3800.11 7329.72 3796.41 7334.69 3794L7504.35 3709.36C7509.47 3706.58 7513.79 3702.53 7516.88 3697.59L7615.95 3535.9C7618.6 3531.07 7622.5 3527.04 7627.24 3524.24C7631.98 3521.43 7637.39 3519.95 7642.89 3519.95C7648.4 3519.95 7653.81 3521.43 7658.55 3524.24C7663.29 3527.04 7667.19 3531.07 7669.84 3535.9L7751.07 3702.91C7753.42 3708.3 7757.41 3712.81 7762.46 3715.81Z" fill="#E0E0E0"/>
<path d="M8781.59 509.63L8941.01 604.521C8945.7 607.435 8949.52 611.558 8952.07 616.459C8954.62 621.36 8955.8 626.857 8955.49 632.372C8955.18 637.887 8953.39 643.216 8950.3 647.8C8947.22 652.383 8942.96 656.052 8937.97 658.42L8768.68 743.442C8763.3 745.977 8758.8 750.078 8755.78 755.209L8657.09 916.524C8654.39 921.343 8650.45 925.354 8645.68 928.146C8640.91 930.938 8635.48 932.41 8629.95 932.41C8624.43 932.41 8619 930.938 8614.23 928.146C8609.46 925.354 8605.52 921.343 8602.81 916.524L8521.97 749.136C8519.34 744.032 8515.41 739.711 8510.58 736.61L8350.78 641.339C8346.09 638.426 8342.27 634.302 8339.72 629.401C8337.17 624.501 8335.99 619.004 8336.3 613.489C8336.61 607.974 8338.4 602.644 8341.49 598.061C8344.57 593.477 8348.83 589.809 8353.82 587.441L8523.11 502.798C8528.41 500.137 8532.87 496.066 8536.01 491.032L8635.08 329.337C8637.73 324.509 8641.63 320.481 8646.37 317.676C8651.11 314.871 8656.52 313.391 8662.03 313.391C8667.54 313.391 8672.94 314.871 8677.68 317.676C8682.42 320.481 8686.32 324.509 8688.98 329.337L8769.82 496.346C8772.25 501.9 8776.37 506.549 8781.59 509.63Z" fill="#E0E0E0"/>
<path d="M3612.68 1906.05L3693.15 1954.25C3695.6 1955.59 3697.65 1957.57 3699.08 1959.97C3700.51 1962.38 3701.26 1965.12 3701.26 1967.92C3701.26 1970.71 3700.51 1973.46 3699.08 1975.86C3697.65 1978.27 3695.6 1980.24 3693.15 1981.58L3607.37 2024.85C3604.72 2026.11 3602.49 2028.08 3600.91 2030.55L3550.81 2112.53C3549.42 2114.98 3547.4 2117.01 3544.97 2118.43C3542.54 2119.84 3539.77 2120.59 3536.96 2120.59C3534.14 2120.59 3531.38 2119.84 3528.94 2118.43C3526.51 2117.01 3524.49 2114.98 3523.1 2112.53L3482.11 2027.89C3480.86 2025.24 3478.88 2023.01 3476.42 2021.44L3395.19 1973.23C3392.73 1971.89 3390.68 1969.92 3389.26 1967.51C3387.83 1965.11 3387.07 1962.36 3387.07 1959.57C3387.07 1956.77 3387.83 1954.02 3389.26 1951.62C3390.68 1949.22 3392.73 1947.24 3395.19 1945.9L3481.35 1902.63C3483.99 1901.38 3486.23 1899.41 3487.8 1896.94L3537.91 1814.95C3539.24 1812.5 3541.22 1810.45 3543.62 1809.02C3546.03 1807.59 3548.77 1806.84 3551.57 1806.84C3554.37 1806.84 3557.11 1807.59 3559.52 1809.02C3561.92 1810.45 3563.9 1812.5 3565.23 1814.95L3606.61 1899.6C3607.83 1902.38 3609.98 1904.66 3612.68 1906.05Z" fill="#E0E0E0"/>
<path d="M12639.1 1438.42L12720 1486.63C12722.4 1487.97 12724.5 1489.94 12725.9 1492.35C12727.3 1494.75 12728.1 1497.5 12728.1 1500.29C12728.1 1503.09 12727.3 1505.84 12725.9 1508.24C12724.5 1510.64 12722.4 1512.62 12720 1513.96L12634.2 1556.85C12631.4 1558.12 12629.2 1560.25 12627.7 1562.92L12575 1644.91C12573.6 1647.36 12571.6 1649.41 12569.2 1650.84C12566.8 1652.27 12564.1 1653.02 12561.3 1653.02C12558.5 1653.02 12555.8 1652.27 12553.3 1650.84C12550.9 1649.41 12549 1647.36 12547.6 1644.91L12506.6 1560.27C12505.4 1557.62 12503.4 1555.39 12500.9 1553.81L12419.7 1505.61C12417.3 1504.27 12415.2 1502.29 12413.8 1499.89C12412.4 1497.48 12411.6 1494.74 12411.6 1491.94C12411.6 1489.15 12412.4 1486.4 12413.8 1484C12415.2 1481.59 12417.3 1479.62 12419.7 1478.28L12505.9 1435.39C12508.5 1433.98 12510.8 1431.88 12512.3 1429.32L12562.4 1347.33C12563.8 1344.87 12565.7 1342.82 12568.1 1341.4C12570.6 1339.97 12573.3 1339.21 12576.1 1339.21C12578.9 1339.21 12581.6 1339.97 12584 1341.4C12586.4 1342.82 12588.4 1344.87 12589.8 1347.33L12630.8 1432.35C12632.8 1435.21 12635.7 1437.33 12639.1 1438.42Z" fill="#E0E0E0"/>
<path d="M20147.6 907.035L20228.9 955.24C20231.3 956.578 20233.4 958.553 20234.8 960.958C20236.2 963.363 20237 966.107 20237 968.904C20237 971.701 20236.2 974.446 20234.8 976.85C20233.4 979.255 20231.3 981.23 20228.9 982.568L20142.7 1025.46C20140.1 1026.87 20137.8 1028.96 20136.3 1031.53L20086.2 1113.52C20084.8 1115.97 20082.8 1118.02 20080.4 1119.45C20078 1120.88 20075.3 1121.63 20072.5 1121.63C20069.7 1121.63 20067 1120.88 20064.5 1119.45C20062.1 1118.02 20060.2 1115.97 20058.8 1113.52L20017.8 1028.5C20016.4 1025.84 20014.3 1023.61 20011.8 1022.04L19930.9 973.838C19928.5 972.5 19926.4 970.525 19925 968.12C19923.6 965.716 19922.8 962.971 19922.8 960.174C19922.8 957.377 19923.6 954.633 19925 952.228C19926.4 949.823 19928.5 947.848 19930.9 946.51L20016.7 903.619C20019.4 902.344 20021.7 900.213 20023.1 897.546L20073.6 815.56C20075 813.104 20076.9 811.055 20079.3 809.627C20081.8 808.199 20084.5 807.445 20087.3 807.445C20090.1 807.445 20092.8 808.199 20095.2 809.627C20097.6 811.055 20099.6 813.104 20101 815.56L20142 900.203C20143.1 902.986 20145.1 905.36 20147.6 907.035Z" fill="#E0E0E0"/>
<path d="M25333.3 1168.93L25414.1 1217.14C25416.6 1218.48 25418.6 1220.45 25420 1222.86C25421.5 1225.26 25422.2 1228.01 25422.2 1230.8C25422.2 1233.6 25421.5 1236.35 25420 1238.75C25418.6 1241.15 25416.6 1243.13 25414.1 1244.47L25328.3 1286.6C25325.7 1288.01 25323.4 1290.1 25321.9 1292.67L25271.8 1374.66C25270.4 1377.1 25268.4 1379.14 25265.9 1380.55C25263.5 1381.97 25260.7 1382.71 25257.9 1382.71C25255.1 1382.71 25252.3 1381.97 25249.9 1380.55C25247.5 1379.14 25245.5 1377.1 25244.1 1374.66L25203.1 1289.64C25201.8 1286.99 25199.8 1284.76 25197.4 1283.18L25116.1 1234.98C25113.7 1233.64 25111.6 1231.67 25110.2 1229.26C25108.8 1226.86 25108 1224.11 25108 1221.31C25108 1218.52 25108.8 1215.77 25110.2 1213.37C25111.6 1210.96 25113.7 1208.99 25116.1 1207.65L25202.3 1164.76C25205.1 1163.48 25207.3 1161.35 25208.8 1158.69L25258.9 1076.7C25260.2 1074.24 25262.2 1072.2 25264.6 1070.77C25267 1069.34 25269.7 1068.59 25272.5 1068.59C25275.3 1068.59 25278.1 1069.34 25280.5 1070.77C25282.9 1072.2 25284.9 1074.24 25286.2 1076.7L25328.3 1162.48C25329.3 1165.1 25331 1167.35 25333.3 1168.93Z" fill="#E0E0E0"/>
<path d="M16064.7 16310.9L16159.6 16366.3C16162.4 16367.9 16164.8 16370.3 16166.4 16373.1C16168 16376 16168.9 16379.2 16168.9 16382.4C16168.9 16385.7 16168 16388.9 16166.4 16391.8C16164.8 16394.6 16162.4 16397 16159.6 16398.6L16059.7 16449.4C16056.6 16451.1 16054 16453.6 16052.1 16456.7L15994.5 16552.7C15992.8 16555.5 15990.5 16557.9 15987.6 16559.5C15984.8 16561.2 15981.6 16562 15978.3 16562C15975 16562 15971.8 16561.2 15969 16559.5C15966.2 16557.9 15963.8 16555.5 15962.2 16552.7L15913.6 16454C15911.9 16451.1 15909.6 16448.6 15906.8 16446.8L15811.5 16391.4C15808.7 16389.8 15806.3 16387.5 15804.6 16384.7C15803 16381.9 15802.1 16378.7 15802.1 16375.4C15802.1 16372.2 15803 16369 15804.6 16366.2C15806.3 16363.4 15808.7 16361.1 15811.5 16359.5L15911.3 16308.2C15914.4 16306.7 15917.1 16304.4 15918.9 16301.4L15976.6 16205C15978.2 16202.2 15980.6 16199.8 15983.4 16198.2C15986.3 16196.5 15989.5 16195.7 15992.7 16195.7C15996 16195.7 15999.2 16196.5 16002.1 16198.2C16004.9 16199.8 16007.2 16202.2 16008.9 16205L16057.5 16303.7C16059.1 16306.8 16061.6 16309.3 16064.7 16310.9Z" fill="#E0E0E0"/>
<path d="M25989.9 9430.54L26085.2 9485.95C26088 9487.53 26090.4 9489.84 26092 9492.64C26093.7 9495.45 26094.6 9498.64 26094.6 9501.9C26094.6 9505.15 26093.7 9508.35 26092 9511.15C26090.4 9513.95 26088 9516.26 26085.2 9517.84L25985.3 9569.08C25982.1 9570.65 25979.5 9573.17 25977.8 9576.29L25920.1 9672.32C25918.4 9675.16 25916.1 9677.52 25913.3 9679.16C25910.4 9680.8 25907.2 9681.66 25903.9 9681.66C25900.7 9681.66 25897.4 9680.8 25894.6 9679.16C25891.8 9677.52 25889.4 9675.16 25887.8 9672.32L25839.2 9573.63C25837.6 9570.54 25835.1 9568.02 25832 9566.42L25737.1 9511.01C25734.3 9509.43 25731.9 9507.12 25730.2 9504.32C25728.6 9501.51 25727.7 9498.32 25727.7 9495.06C25727.7 9491.81 25728.6 9488.61 25730.2 9485.81C25731.9 9483.01 25734.3 9480.7 25737.1 9479.12L25836.9 9427.88C25840.1 9426.2 25842.7 9423.71 25844.5 9420.67L25902.2 9324.64C25903.9 9321.8 25906.2 9319.44 25909 9317.8C25911.9 9316.16 25915.1 9315.3 25918.4 9315.3C25921.6 9315.3 25924.8 9316.16 25927.7 9317.8C25930.5 9319.44 25932.9 9321.8 25934.5 9324.64L25983.1 9423.33C25984.6 9426.33 25987 9428.83 25989.9 9430.54Z" fill="#E0E0E0"/>
<path d="M1493.57 10275.4L1569.48 10320.6C1571.77 10321.9 1573.68 10323.8 1575.01 10326C1576.33 10328.3 1577.03 10330.9 1577.03 10333.5C1577.03 10336.1 1576.33 10338.7 1575.01 10341C1573.68 10343.3 1571.77 10345.1 1569.48 10346.4L1488.26 10387C1485.8 10388.4 1483.72 10390.4 1482.18 10392.7L1434.74 10468.6C1433.45 10470.9 1431.58 10472.8 1429.31 10474.2C1427.04 10475.5 1424.46 10476.2 1421.83 10476.2C1419.2 10476.2 1416.62 10475.5 1414.36 10474.2C1412.09 10472.8 1410.21 10470.9 1408.93 10468.6L1370.97 10388.6C1369.59 10386.1 1367.64 10384 1365.28 10382.5L1289.36 10336.9C1287.07 10335.6 1285.17 10333.8 1283.84 10331.5C1282.51 10329.2 1281.81 10326.7 1281.81 10324C1281.81 10321.4 1282.51 10318.8 1283.84 10316.6C1285.17 10314.3 1287.07 10312.4 1289.36 10311.1L1370.59 10270.5C1373.21 10269.4 1375.35 10267.4 1376.66 10264.8L1424.11 10188.9C1425.31 10186.5 1427.15 10184.5 1429.43 10183.1C1431.71 10181.7 1434.33 10180.9 1437.01 10180.9C1439.69 10180.9 1442.32 10181.7 1444.6 10183.1C1446.88 10184.5 1448.72 10186.5 1449.92 10188.9L1487.88 10269C1489.32 10271.5 1491.26 10273.7 1493.57 10275.4Z" fill="#E0E0E0"/>
<path d="M9564.63 15919.6L9640.54 15965.1C9642.83 15966.4 9644.74 15968.3 9646.07 15970.5C9647.4 15972.8 9648.09 15975.4 9648.09 15978C9648.09 15980.7 9647.4 15983.2 9646.07 15985.5C9644.74 15987.8 9642.83 15989.6 9640.54 15990.9L9559.32 16031.5C9556.79 16032.8 9554.68 16034.8 9553.24 16037.2L9505.8 16113.1C9504.51 16115.4 9502.64 16117.3 9500.37 16118.7C9498.1 16120 9495.52 16120.7 9492.89 16120.7C9490.26 16120.7 9487.68 16120 9485.42 16118.7C9483.15 16117.3 9481.27 16115.4 9479.99 16113.1L9442.03 16033.1C9440.65 16030.6 9438.7 16028.5 9436.34 16027L9360.42 15981.4C9358.13 15980.2 9356.23 15978.3 9354.9 15976C9353.57 15973.7 9352.87 15971.2 9352.87 15968.5C9352.87 15965.9 9353.57 15963.3 9354.9 15961.1C9356.23 15958.8 9358.13 15956.9 9360.42 15955.6L9441.65 15915C9444.27 15913.9 9446.41 15911.9 9447.72 15909.3L9495.17 15833.4C9496.46 15831.1 9498.33 15829.2 9500.6 15827.9C9502.87 15826.6 9505.45 15825.9 9508.08 15825.9C9510.7 15825.9 9513.28 15826.6 9515.55 15827.9C9517.82 15829.2 9519.69 15831.1 9520.98 15833.4L9558.94 15913.5C9560.21 15916 9562.19 15918.1 9564.63 15919.6Z" fill="#E0E0E0"/>
<path d="M24116.8 14062.7L24192.7 14108.3C24195 14109.6 24196.9 14111.4 24198.2 14113.7C24199.5 14116 24200.2 14118.6 24200.2 14121.2C24200.2 14123.8 24199.5 14126.4 24198.2 14128.7C24196.9 14130.9 24195 14132.8 24192.7 14134.1L24111.4 14174.7C24108.9 14176 24106.8 14178 24105.4 14180.4L24057.9 14256.3C24056.6 14258.6 24054.8 14260.5 24052.5 14261.8C24050.2 14263.2 24047.6 14263.9 24045 14263.9C24042.4 14263.9 24039.8 14263.2 24037.5 14261.8C24035.3 14260.5 24033.4 14258.6 24032.1 14256.3L23994.2 14176.2C23993 14173.7 23991.2 14171.6 23988.8 14170.2L23912.9 14124.6C23910.6 14123.3 23908.7 14121.4 23907.4 14119.2C23906.1 14116.9 23905.4 14114.3 23905.4 14111.7C23905.4 14109.1 23906.1 14106.5 23907.4 14104.2C23908.7 14102 23910.6 14100.1 23912.9 14098.8L23994.2 14058.2C23996.8 14057 23998.9 14055 24000.2 14052.5L24047.7 13976.6C24049 13974.3 24050.8 13972.4 24053.1 13971.1C24055.4 13969.7 24058 13969 24060.6 13969C24063.2 13969 24065.8 13969.7 24068.1 13971.1C24070.3 13972.4 24072.2 13974.3 24073.5 13976.6L24111.4 14056.3C24112.6 14058.9 24114.4 14061.1 24116.8 14062.7Z" fill="#E0E0E0"/>
<path d="M22502.1 15865.7L22578 15911.2C22580.3 15912.5 22582.2 15914.4 22583.5 15916.6C22584.9 15918.9 22585.6 15921.5 22585.6 15924.1C22585.6 15926.8 22584.9 15929.3 22583.5 15931.6C22582.2 15933.9 22580.3 15935.7 22578 15937L22496.8 15977.6C22494.2 15978.8 22492 15980.8 22490.7 15983.3L22443.3 16059.3C22442 16061.5 22440.1 16063.4 22437.8 16064.8C22435.6 16066.1 22433 16066.8 22430.4 16066.8C22427.7 16066.8 22425.1 16066.1 22422.9 16064.8C22420.6 16063.4 22418.7 16061.5 22417.4 16059.3L22379.5 15979.2C22378.1 15976.8 22376.1 15974.9 22373.8 15973.5L22297.9 15927.9C22295.6 15926.6 22293.7 15924.8 22292.4 15922.5C22291 15920.2 22290.3 15917.6 22290.3 15915C22290.3 15912.4 22291 15909.8 22292.4 15907.5C22293.7 15905.3 22295.6 15903.4 22297.9 15902.1L22379.1 15861.5C22381.6 15860.1 22383.6 15858.2 22385.2 15855.8L22432.6 15779.9C22433.9 15777.6 22435.8 15775.7 22438.1 15774.4C22440.3 15773 22442.9 15772.3 22445.5 15772.3C22448.2 15772.3 22450.7 15773 22453 15774.4C22455.3 15775.7 22457.2 15777.6 22458.4 15779.9L22496.4 15860C22497.8 15862.3 22499.8 15864.2 22502.1 15865.7Z" fill="#E0E0E0"/>
<path d="M24134.6 4253.65L24217.3 4303C24219.8 4304.39 24221.8 4306.41 24223.2 4308.84C24224.6 4311.27 24225.4 4314.04 24225.4 4316.85C24225.4 4319.67 24224.6 4322.43 24223.2 4324.86C24221.8 4327.3 24219.8 4329.31 24217.3 4330.71L24129.3 4374.74C24126.6 4376.14 24124.4 4378.24 24122.8 4380.81L24071.2 4464.69C24069.8 4467.14 24067.8 4469.17 24065.4 4470.59C24062.9 4472 24060.2 4472.75 24057.4 4472.75C24054.5 4472.75 24051.8 4472 24049.3 4470.59C24046.9 4469.17 24044.9 4467.14 24043.5 4464.69L23999.8 4377.01C23998.6 4374.26 23996.4 4372 23993.8 4370.56L23911 4321.22C23908.5 4319.85 23906.4 4317.83 23904.9 4315.35C23903.4 4312.88 23902.6 4310.05 23902.6 4307.17C23902.6 4304.29 23903.4 4301.46 23904.9 4298.99C23906.4 4296.52 23908.5 4294.49 23911 4293.13L23999.1 4249.48C24001.8 4247.94 24004 4245.71 24005.5 4243.03L24056.8 4159.52C24058.1 4156.98 24060.2 4154.86 24062.6 4153.38C24065.1 4151.91 24067.9 4151.12 24070.8 4151.12C24073.7 4151.12 24076.5 4151.91 24079 4153.38C24081.5 4154.86 24083.5 4156.98 24084.9 4159.52L24127 4246.06C24127.7 4247.79 24128.7 4249.35 24130 4250.66C24131.3 4251.97 24132.9 4252.99 24134.6 4253.65Z" fill="#E0E0E0"/>
<path d="M21485.6 5697.52L21523.6 5722.19C21524.8 5722.79 21525.8 5723.71 21526.5 5724.85C21527.2 5725.99 21527.6 5727.3 21527.6 5728.64C21527.6 5729.98 21527.2 5731.3 21526.5 5732.43C21525.8 5733.57 21524.8 5734.5 21523.6 5735.09L21483.3 5754.45C21482 5755.06 21480.9 5756.14 21480.3 5757.49L21457.5 5795.44C21456.9 5796.63 21455.9 5797.62 21454.7 5798.31C21453.6 5799 21452.2 5799.36 21450.9 5799.36C21449.5 5799.36 21448.2 5799 21447 5798.31C21445.9 5797.62 21444.9 5796.63 21444.2 5795.44L21423.4 5754.07C21422.7 5752.79 21421.6 5751.73 21420.3 5751.04L21382.4 5726.36C21381.2 5725.77 21380.2 5724.84 21379.5 5723.7C21378.8 5722.57 21378.4 5721.25 21378.4 5719.91C21378.4 5718.57 21378.8 5717.26 21379.5 5716.12C21380.2 5714.98 21381.2 5714.06 21382.4 5713.46L21423 5694.1C21424.3 5693.4 21425.3 5692.35 21426 5691.06L21448.8 5653.11C21449.4 5651.91 21450.3 5650.9 21451.5 5650.2C21452.6 5649.49 21453.9 5649.12 21455.2 5649.12C21456.6 5649.12 21457.9 5649.49 21459 5650.2C21460.2 5650.9 21461.1 5651.91 21461.7 5653.11L21483 5694.48C21483.5 5695.74 21484.4 5696.8 21485.6 5697.52Z" fill="#BA68C8"/>
<path d="M21516.7 11435L21554.7 11459.7C21555.9 11460.3 21556.9 11461.2 21557.6 11462.3C21558.3 11463.5 21558.7 11464.8 21558.7 11466.1C21558.7 11467.5 21558.3 11468.8 21557.6 11469.9C21556.9 11471.1 21555.9 11472 21554.7 11472.6L21514.5 11492C21513.1 11492.5 21512 11493.6 21511.4 11495L21488.6 11532.9C21488 11534.1 21487 11535.1 21485.9 11535.8C21484.7 11536.5 21483.4 11536.9 21482 11536.9C21480.6 11536.9 21479.3 11536.5 21478.1 11535.8C21477 11535.1 21476 11534.1 21475.4 11532.9L21454.5 11491.6C21453.7 11490.4 21452.6 11489.3 21451.4 11488.5L21413.5 11464.2C21412.3 11463.6 21411.3 11462.6 21410.6 11461.5C21409.9 11460.3 21409.6 11459 21409.6 11457.6C21409.6 11456.2 21409.9 11454.9 21410.6 11453.7C21411.3 11452.6 21412.3 11451.6 21413.5 11451L21454.1 11431.6C21455.3 11430.9 21456.3 11430 21457.1 11428.9L21479.5 11391C21480.2 11389.8 21481.2 11388.8 21482.3 11388.1C21483.5 11387.4 21484.8 11387.1 21486.2 11387.1C21487.5 11387.1 21488.9 11387.4 21490 11388.1C21491.2 11388.8 21492.2 11389.8 21492.8 11391L21513.7 11432.4C21514.5 11433.4 21515.6 11434.3 21516.7 11435Z" fill="#BA68C8"/>
<path d="M23093.1 8805.77L23169 8851.32C23171.3 8852.6 23173.2 8854.48 23174.5 8856.75C23175.8 8859.01 23176.5 8861.6 23176.5 8864.22C23176.5 8866.85 23175.8 8869.43 23174.5 8871.7C23173.2 8873.97 23171.3 8875.84 23169 8877.13L23088.9 8917.74C23086.2 8919 23084 8920.97 23082.4 8923.44L23035.4 8999.35C23034.1 9001.64 23032.2 9003.55 23029.9 9004.87C23027.7 9006.2 23025.1 9006.9 23022.5 9006.9C23019.8 9006.9 23017.3 9006.2 23015 9004.87C23012.7 9003.55 23010.8 9001.64 23009.6 8999.35L22971.6 8919.64C22970.5 8917.13 22968.6 8915.01 22966.3 8913.57L22890.4 8868.02C22888.1 8866.73 22886.2 8864.86 22884.9 8862.59C22883.5 8860.32 22882.8 8857.74 22882.8 8855.11C22882.8 8852.49 22883.5 8849.91 22884.9 8847.64C22886.2 8845.37 22888.1 8843.5 22890.4 8842.21L22971.6 8801.59C22974.2 8800.44 22976.4 8798.44 22977.7 8795.9L23025.1 8719.99C23026.4 8717.7 23028.3 8715.79 23030.6 8714.46C23032.8 8713.14 23035.4 8712.44 23038 8712.44C23040.7 8712.44 23043.2 8713.14 23045.5 8714.46C23047.8 8715.79 23049.6 8717.7 23050.9 8719.99L23088.9 8800.08C23089.7 8802.36 23091.1 8804.34 23093.1 8805.77Z" fill="#BA68C8"/>
<path d="M21062 6127.18L21137.9 6174.63C21140.2 6175.86 21142.2 6177.69 21143.5 6179.93C21144.8 6182.17 21145.5 6184.74 21145.5 6187.35C21145.5 6189.96 21144.8 6192.52 21143.5 6194.76C21142.2 6196.99 21140.2 6198.83 21137.9 6200.06L21059.4 6238.02C21056.9 6239.4 21054.8 6241.35 21053.3 6243.71L21009.3 6319.62C21008 6321.91 21006.1 6323.82 21003.8 6325.15C21001.6 6326.48 20999 6327.17 20996.4 6327.17C20993.7 6327.17 20991.1 6326.48 20988.9 6325.15C20986.6 6323.82 20984.7 6321.91 20983.4 6319.62L20942.8 6238.78C20941.5 6236.32 20939.5 6234.24 20937.1 6232.7L20861.2 6185.26C20858.9 6183.97 20857 6182.1 20855.7 6179.83C20854.4 6177.56 20853.7 6174.98 20853.7 6172.35C20853.7 6169.72 20854.4 6167.14 20855.7 6164.88C20857 6162.61 20858.9 6160.73 20861.2 6159.45L20940.2 6121.49C20942.6 6120.35 20944.6 6118.49 20945.9 6116.18L20990.3 6040.26C20991.5 6037.96 20993.3 6036.04 20995.6 6034.7C20997.8 6033.36 21000.4 6032.65 21003 6032.65C21005.6 6032.65 21008.2 6033.36 21010.4 6034.7C21012.6 6036.04 21014.5 6037.96 21015.7 6040.26L21056.7 6120.73C21057.8 6123.35 21059.7 6125.59 21062 6127.18Z" fill="#BA68C8"/>
<path d="M3029.67 8359.78L3087.74 8397.74C3089.48 8398.68 3090.94 8400.08 3091.95 8401.79C3092.97 8403.49 3093.51 8405.44 3093.51 8407.42C3093.51 8409.4 3092.97 8411.35 3091.95 8413.05C3090.94 8414.75 3089.48 8416.15 3087.74 8417.1L3027.39 8445.19C3025.45 8446.03 3023.84 8447.5 3022.83 8449.36L2988.29 8505.92C2987.35 8507.66 2985.95 8509.11 2984.25 8510.13C2982.54 8511.14 2980.6 8511.68 2978.62 8511.68C2976.63 8511.68 2974.69 8511.14 2972.98 8510.13C2971.28 8509.11 2969.88 8507.66 2968.94 8505.92L2938.95 8444.43C2937.85 8442.44 2936.29 8440.74 2934.4 8439.49L2876.7 8401.53C2874.97 8400.54 2873.53 8399.1 2872.53 8397.37C2871.52 8395.63 2871 8393.67 2871 8391.67C2871 8389.67 2871.52 8387.7 2872.53 8385.97C2873.53 8384.23 2874.97 8382.8 2876.7 8381.8L2936.67 8354.09C2938.67 8353.33 2940.3 8351.84 2941.23 8349.91L2975.77 8293.36C2976.71 8291.62 2978.11 8290.16 2979.81 8289.14C2981.52 8288.13 2983.46 8287.59 2985.45 8287.59C2987.43 8287.59 2989.38 8288.13 2991.08 8289.14C2992.78 8290.16 2994.18 8291.62 2995.13 8293.36L3025.49 8354.85C3026.46 8356.81 3027.89 8358.51 3029.67 8359.78Z" fill="#BA68C8"/>
<path d="M4286.79 9674.98L4342.96 9707.24C4344.63 9708.1 4346.04 9709.41 4347.02 9711.01C4348 9712.62 4348.51 9714.47 4348.51 9716.35C4348.51 9718.23 4348 9720.07 4347.02 9721.68C4346.04 9723.29 4344.63 9724.59 4342.96 9725.46L4287.54 9754.3C4285.8 9755.29 4284.35 9756.73 4283.37 9758.48L4253.76 9813.14C4252.84 9814.8 4251.5 9816.18 4249.86 9817.15C4248.23 9818.11 4246.36 9818.62 4244.46 9818.62C4242.57 9818.62 4240.7 9818.11 4239.07 9817.15C4237.43 9816.18 4236.08 9814.8 4235.16 9813.14L4204.04 9756.58C4203.2 9754.64 4201.73 9753.04 4199.86 9752.03L4144.07 9720.14C4142.4 9719.28 4140.99 9717.98 4140.01 9716.37C4139.03 9714.76 4138.52 9712.92 4138.52 9711.03C4138.52 9709.15 4139.03 9707.31 4140.01 9705.7C4140.99 9704.09 4142.4 9702.79 4144.07 9701.92L4199.49 9673.08C4201.15 9671.99 4202.57 9670.57 4203.66 9668.9L4233.27 9614.24C4234.13 9612.57 4235.43 9611.17 4237.04 9610.19C4238.65 9609.21 4240.49 9608.69 4242.38 9608.69C4244.26 9608.69 4246.1 9609.21 4247.71 9610.19C4249.32 9611.17 4250.62 9612.57 4251.49 9614.24L4282.61 9670.8C4283.6 9672.55 4285.04 9673.99 4286.79 9674.98Z" fill="#BA68C8"/>
<path d="M5968.26 5321.75L6024.43 5354.01C6026 5354.96 6027.3 5356.29 6028.21 5357.89C6029.11 5359.48 6029.58 5361.29 6029.58 5363.12C6029.58 5364.96 6029.11 5366.76 6028.21 5368.35C6027.3 5369.95 6026 5371.29 6024.43 5372.23L5969.02 5401.08C5967.23 5401.82 5965.75 5403.16 5964.84 5404.87L5934.85 5459.91C5933.99 5461.58 5932.69 5462.99 5931.08 5463.97C5929.47 5464.95 5927.63 5465.46 5925.75 5465.46C5923.86 5465.46 5922.02 5464.95 5920.41 5463.97C5918.8 5462.99 5917.5 5461.58 5916.64 5459.91L5885.51 5402.98C5884.53 5401.23 5883.08 5399.79 5881.34 5398.8L5825.16 5366.92C5823.5 5366 5822.11 5364.65 5821.15 5363.02C5820.19 5361.38 5819.68 5359.52 5819.68 5357.62C5819.68 5355.72 5820.19 5353.86 5821.15 5352.22C5822.11 5350.58 5823.5 5349.24 5825.16 5348.32L5880.58 5319.47C5882.19 5318.62 5883.52 5317.29 5884.37 5315.68L5914.36 5260.64C5915.22 5258.97 5916.53 5257.56 5918.13 5256.58C5919.74 5255.6 5921.59 5255.09 5923.47 5255.09C5925.35 5255.09 5927.2 5255.6 5928.8 5256.58C5930.41 5257.56 5931.71 5258.97 5932.58 5260.64L5963.7 5317.19C5964.98 5318.93 5966.52 5320.47 5968.26 5321.75Z" fill="#BA68C8"/>
<path d="M10331 4399.03L10387.1 4431.29C10388.8 4432.15 10390.2 4433.46 10391.2 4435.07C10392.2 4436.67 10392.7 4438.52 10392.7 4440.4C10392.7 4442.28 10392.2 4444.13 10391.2 4445.74C10390.2 4447.34 10388.8 4448.65 10387.1 4449.51L10331.7 4478.36C10330.8 4478.74 10329.9 4479.31 10329.2 4480.02C10328.5 4480.74 10327.9 4481.59 10327.6 4482.53L10297.6 4537.19C10296.7 4538.86 10295.4 4540.27 10293.8 4541.25C10292.2 4542.23 10290.3 4542.74 10288.5 4542.74C10286.6 4542.74 10284.7 4542.23 10283.1 4541.25C10281.5 4540.27 10280.2 4538.86 10279.3 4537.19L10248.2 4480.64C10247.4 4478.69 10245.9 4477.09 10244 4476.08L10187.9 4444.2C10186.2 4443.34 10184.8 4442.03 10183.8 4440.42C10182.8 4438.82 10182.3 4436.97 10182.3 4435.09C10182.3 4433.21 10182.8 4431.36 10183.8 4429.75C10184.8 4428.15 10186.2 4426.84 10187.9 4425.98L10243.3 4397.13C10245 4396.04 10246.4 4394.62 10247.5 4392.96L10277.1 4337.92C10278 4336.35 10279.4 4335.05 10280.9 4334.14C10282.5 4333.24 10284.3 4332.77 10286.2 4332.77C10288 4332.77 10289.8 4333.24 10291.4 4334.14C10293 4335.05 10294.3 4336.35 10295.3 4337.92L10326.4 4394.47C10327.4 4396.41 10329 4398 10331 4399.03Z" fill="#BA68C8"/>
<path d="M3876.85 9884.49L3988.07 9948.26C3991.7 9949.93 3994.78 9952.6 3996.94 9955.96C3999.1 9959.33 4000.25 9963.24 4000.25 9967.24C4000.25 9971.24 3999.1 9975.15 3996.94 9978.51C3994.78 9981.88 3991.7 9984.55 3988.07 9986.22L3878.37 10043.5C3874.83 10045.3 3871.91 10048 3870.02 10051.5L3810.81 10160.4C3809.27 10164.2 3806.64 10167.4 3803.26 10169.7C3799.88 10172 3795.9 10173.2 3791.83 10173.2C3787.76 10173.2 3783.78 10172 3780.4 10169.7C3777.02 10167.4 3774.39 10164.2 3772.85 10160.4L3710.98 10046.6C3709.02 10043 3706.14 10040 3702.63 10037.8L3591.04 9974.07C3587.27 9972.53 3584.04 9969.91 3581.77 9966.53C3579.5 9963.15 3578.29 9959.17 3578.29 9955.09C3578.29 9951.02 3579.5 9947.04 3581.77 9943.66C3584.04 9940.28 3587.27 9937.65 3591.04 9936.11L3701.12 9878.8C3704.48 9876.96 3707.24 9874.19 3709.09 9870.83L3768.3 9761.89C3769.96 9758.26 3772.64 9755.18 3776 9753.02C3779.37 9750.86 3783.28 9749.71 3787.28 9749.71C3791.27 9749.71 3795.19 9750.86 3798.55 9753.02C3801.92 9755.18 3804.59 9758.26 3806.26 9761.89L3868.12 9875.76C3870.14 9879.45 3873.17 9882.48 3876.85 9884.49Z" fill="#BA68C8"/>
<path d="M11117.8 3816.78L11229 3880.54C11232.3 3882.3 11235 3884.9 11236.9 3888.08C11238.8 3891.25 11239.8 3894.88 11239.8 3898.57C11239.8 3902.27 11238.8 3905.89 11236.9 3909.07C11235 3912.24 11232.3 3914.84 11229 3916.6L11119.3 3973.92C11115.9 3975.75 11113 3978.51 11111 3981.89L11051.8 4090.82C11050 4094.07 11047.4 4096.79 11044.2 4098.68C11041.1 4100.57 11037.4 4101.57 11033.7 4101.57C11030 4101.57 11026.4 4100.57 11023.2 4098.68C11020.1 4096.79 11017.5 4094.07 11015.7 4090.82L10953.8 3976.95C10951.9 3973.46 10949 3970.57 10945.5 3968.6L10834.3 3905.59C10830.6 3903.93 10827.6 3901.26 10825.4 3897.89C10823.2 3894.53 10822.1 3890.61 10822.1 3886.62C10822.1 3882.62 10823.2 3878.7 10825.4 3875.34C10827.6 3871.98 10830.6 3869.3 10834.3 3867.64L10944.3 3810.32C10947.8 3808.6 10950.6 3805.8 10952.3 3802.35L11011.5 3693.42C11013.2 3689.78 11015.9 3686.7 11019.2 3684.54C11022.6 3682.39 11026.5 3681.24 11030.5 3681.24C11034.5 3681.24 11038.4 3682.39 11041.8 3684.54C11045.1 3686.7 11047.8 3689.78 11049.5 3693.42L11111.4 3807.29C11112.7 3810.94 11114.9 3814.2 11117.8 3816.78Z" fill="#BA68C8"/>
<path d="M9526.29 14647.3L9637.5 14711C9640.75 14712.8 9643.47 14715.4 9645.36 14718.6C9647.25 14721.7 9648.25 14725.4 9648.25 14729.1C9648.25 14732.8 9647.25 14736.4 9645.36 14739.6C9643.47 14742.7 9640.75 14745.3 9637.5 14747.1L9527.43 14804.4C9523.98 14806.1 9521.19 14808.9 9519.46 14812.4L9462.53 14921.3C9460.86 14925 9458.19 14928 9454.82 14930.2C9451.46 14932.3 9447.55 14933.5 9443.55 14933.5C9439.55 14933.5 9435.64 14932.3 9432.27 14930.2C9428.91 14928 9426.23 14925 9424.57 14921.3L9362.7 14807.4C9360.73 14804 9357.84 14801.1 9354.35 14799.1L9243.14 14735.3C9239.5 14733.7 9236.42 14731 9234.26 14727.6C9232.11 14724.3 9230.96 14720.3 9230.96 14716.4C9230.96 14712.4 9232.11 14708.4 9234.26 14705.1C9236.42 14701.7 9239.5 14699 9243.14 14697.4L9353.21 14640.1C9356.75 14638.3 9359.67 14635.5 9361.56 14632.1L9420.77 14523.2C9422.53 14519.9 9425.13 14517.2 9428.31 14515.3C9431.48 14513.4 9435.11 14512.4 9438.8 14512.4C9442.5 14512.4 9446.12 14513.4 9449.3 14515.3C9452.47 14517.2 9455.08 14519.9 9456.83 14523.2L9518.7 14637C9520.22 14641.1 9522.85 14644.6 9526.29 14647.3Z" fill="#BA68C8"/>
<path d="M19888 12668.2L19999.2 12732C20002.9 12733.7 20006 12736.3 20008.1 12739.7C20010.3 12743.1 20011.4 12747 20011.4 12751C20011.4 12755 20010.3 12758.9 20008.1 12762.2C20006 12765.6 20002.9 12768.3 19999.2 12769.9L19889.9 12825.4C19886.5 12827.2 19883.6 12830 19881.6 12833.3L19822.4 12942.3C19820.8 12946 19818.2 12949.3 19814.8 12951.5C19811.4 12953.8 19807.5 12955 19803.4 12955C19799.3 12955 19795.3 12953.8 19791.9 12951.5C19788.6 12949.3 19785.9 12946 19784.4 12942.3L19722.5 12828.4C19720.6 12824.9 19717.7 12822 19714.2 12820L19602.6 12756.3C19599 12754.6 19595.9 12751.9 19593.7 12748.6C19591.6 12745.2 19590.4 12741.3 19590.4 12737.3C19590.4 12733.3 19591.6 12729.4 19593.7 12726C19595.9 12722.7 19599 12720 19602.6 12718.3L19712.7 12661C19716.1 12659.3 19718.9 12656.5 19720.6 12653L19779.8 12544.1C19781.5 12540.5 19784.2 12537.4 19787.6 12535.2C19790.9 12533.1 19794.8 12531.9 19798.8 12531.9C19802.8 12531.9 19806.7 12533.1 19810.1 12535.2C19813.5 12537.4 19816.1 12540.5 19817.8 12544.1L19879.7 12658C19881.2 12662.2 19884.1 12665.9 19888 12668.2Z" fill="#BA68C8"/>
<path d="M18356.5 4425.22L18429 4466.97C18431.1 4468.09 18432.9 4469.79 18434.2 4471.86C18435.4 4473.93 18436.1 4476.31 18436.1 4478.74C18436.1 4481.16 18435.4 4483.54 18434.2 4485.61C18432.9 4487.69 18431.1 4489.38 18429 4490.5L18357.2 4528.46C18355 4529.73 18353.2 4531.56 18351.9 4533.77L18314 4604.75C18312.8 4606.89 18311.1 4608.67 18309 4609.91C18306.9 4611.15 18304.5 4611.8 18302 4611.8C18299.6 4611.8 18297.2 4611.15 18295.1 4609.91C18293 4608.67 18291.2 4606.89 18290.1 4604.75L18249.8 4531.5C18248.7 4529.21 18246.8 4527.35 18244.5 4526.18L18172 4484.43C18169.9 4483.3 18168.1 4481.61 18166.8 4479.54C18165.6 4477.46 18164.9 4475.09 18164.9 4472.66C18164.9 4470.24 18165.6 4467.86 18166.8 4465.79C18168.1 4463.71 18169.9 4462.02 18172 4460.9L18243.8 4422.94C18246 4421.77 18247.9 4419.91 18249.1 4417.63L18287 4346.65C18288.2 4344.51 18289.9 4342.73 18292 4341.49C18294.1 4340.25 18296.5 4339.6 18299 4339.6C18301.4 4339.6 18303.8 4340.25 18305.9 4341.49C18308 4342.73 18309.8 4344.51 18310.9 4346.65L18351.2 4419.9C18352.3 4422.19 18354.2 4424.05 18356.5 4425.22Z" fill="#BA68C8"/>
<path d="M21712.5 15105.9C22368.7 14493.1 22581.6 13654.7 22188 13233.2C21794.4 12811.7 20943.4 12966.8 20287.2 13579.5C19631 14192.3 19418.1 15030.8 19811.7 15452.3C20205.3 15873.7 21056.3 15718.7 21712.5 15105.9Z" fill="#263238"/>
<path d="M21500.4 14869.3C20903.4 15428.8 20143.1 15608.3 19714.2 15317.2C19741.3 15366.4 19774.6 15411.9 19813.3 15452.7C20208 15873.3 21059.4 15716.5 21714.9 15103.1C22370.4 14489.7 22581.4 13651.3 22186.7 13231.1C22152.5 13194.3 22114.3 13161.5 22072.8 13133.2C22321.4 13580.7 22091.4 14316.3 21500.4 14869.3Z" fill="#455A64"/>
<path d="M10326.5 2677.56C10781.4 2536.56 11092 2234.3 11020.1 2002.43C10948.3 1770.56 10521.2 1696.9 10066.3 1837.89C9611.35 1978.89 9300.82 2281.16 9372.69 2513.02C9444.55 2744.89 9871.6 2818.56 10326.5 2677.56Z" fill="#263238"/>
<path d="M10089.9 1969.81C10502.5 1836.21 10900.3 1879.48 11030.5 2060.91C11029.5 2037.2 11024.9 2013.77 11016.8 1991.45C10933.7 1763.71 10499.1 1696.91 10045.9 1843.8C9592.72 1990.69 9293.24 2294.72 9376.37 2522.84C9383.97 2543.06 9394.18 2562.2 9406.73 2579.77C9397.62 2363.04 9681.54 2103.04 10089.9 1969.81Z" fill="#455A64"/>
<path d="M17410.1 4248.03C17480.5 3791.62 16571.4 3272.56 15379.5 3088.69C14187.6 2904.81 13164.3 3125.75 13093.9 3582.16C13023.5 4038.57 13932.6 4557.62 15124.5 4741.5C16316.4 4925.37 17339.7 4704.44 17410.1 4248.03Z" fill="#263238"/>
<path d="M15396.6 3348.01C16479.5 3532.48 17294.5 3987.2 17340.4 4406.24C17368.8 4368.96 17389.8 4326.56 17402.3 4281.36C17521.4 3832.72 16655.3 3304.74 15466.5 3102.44C14277.7 2900.13 13218.7 3099.4 13099.1 3548.04C13089.1 3587.44 13086.1 3628.31 13090.4 3668.75C13358.8 3310.06 14325.5 3165.44 15396.6 3348.01Z" fill="#455A64"/>
<path d="M15159 3843.35C15431.2 3985.68 15614.5 4254.42 15866.2 4429.77C16033.2 4545.54 16235.9 4625.63 16348.2 4794.91C16337.2 4695.85 16269.3 4613.48 16201.7 4540.23C16010.8 4334.27 15797.3 4150.54 15565.2 3992.52C15446 3911.67 15313.9 3835 15170 3835.76" fill="#455A64"/>
<g opacity="0.2">
<path d="M15159 3843.35C15431.2 3985.68 15614.5 4254.42 15866.2 4429.77C16033.2 4545.54 16235.9 4625.63 16348.2 4794.91C16337.2 4695.85 16269.3 4613.48 16201.7 4540.23C16010.8 4334.27 15797.3 4150.54 15565.2 3992.52C15446 3911.67 15313.9 3835 15170 3835.76" fill="black"/>
</g>
<path d="M16454.1 169.92C16453.1 125.319 16438.1 82.1614 16411.2 46.5619C16370.2 1.39375 16301.5 -3.16111 16240.8 1.39366C15981.9 20.7515 15652.5 404.491 15494.2 608.697L15520.8 1750.81C16229.8 1381.11 16514.8 717.252 16454.1 169.92Z" fill="#455A64"/>
<g opacity="0.2">
<path d="M16454.1 169.92C16453.1 125.319 16438.1 82.1614 16411.2 46.5619C16370.2 1.39375 16301.5 -3.16111 16240.8 1.39366C15981.9 20.7515 15652.5 404.491 15494.2 608.697L15520.8 1750.81C16229.8 1381.11 16514.8 717.252 16454.1 169.92Z" fill="black"/>
</g>
<path d="M15332.9 2515.63C15465.1 2468.44 15600.9 2432.13 15739 2407.07C15874.1 2385.06 16009.6 2328.5 16142.9 2297C16315.2 2256.77 16476.1 2178.95 16641.6 2115.19C16807.1 2051.42 16983.2 2001.32 17159.7 2021.06C17027.3 1958.68 16882.1 1928.14 16735.7 1931.86C16590 1935.97 16444.9 1951.33 16301.5 1977.79C16101.9 2009.67 15898.4 2042.69 15717.8 2133.41C15537.1 2224.12 15370.4 2316.74 15332.9 2515.63Z" fill="#455A64"/>
<g opacity="0.2">
<path d="M15332.9 2515.63C15465.1 2468.44 15600.9 2432.13 15739 2407.07C15874.1 2385.06 16009.6 2328.5 16142.9 2297C16315.2 2256.77 16476.1 2178.95 16641.6 2115.19C16807.1 2051.42 16983.2 2001.32 17159.7 2021.06C17027.3 1958.68 16882.1 1928.14 16735.7 1931.86C16590 1935.97 16444.9 1951.33 16301.5 1977.79C16101.9 2009.67 15898.4 2042.69 15717.8 2133.41C15537.1 2224.12 15370.4 2316.74 15332.9 2515.63Z" fill="black"/>
</g>
<path d="M14413.2 2554.35C14238.2 2297.76 13887.5 2222.99 13585.7 2148.21C14005.2 2508.83 14382.7 2915.5 14711.1 3360.54C14781 3151.78 14634.9 2880.77 14413.2 2554.35Z" fill="#455A64"/>
<g opacity="0.2">
<path d="M14413.2 2554.35C14238.2 2297.76 13887.5 2222.99 13585.7 2148.21C14005.2 2508.83 14382.7 2915.5 14711.1 3360.54C14781 3151.78 14634.9 2880.77 14413.2 2554.35Z" fill="black"/>
</g>
<path d="M14639.4 4148.14C14278.4 4043.76 13980.9 3631.55 13624.8 3515.4C14035.5 3496.05 14549.1 3743.14 14639.4 4148.14Z" fill="#455A64"/>
<g opacity="0.2">
<path d="M14639.4 4148.14C14278.4 4043.76 13980.9 3631.55 13624.8 3515.4C14035.5 3496.05 14549.1 3743.14 14639.4 4148.14Z" fill="black"/>
</g>
<path d="M14998.9 3314.99C15202.2 3304.63 15405 3345.21 15588.7 3433.04C15771.6 3520.91 15946.9 3623.74 16112.9 3740.48C16128.4 3609.91 16052.1 3487.69 15979.3 3378C15926.9 3293.65 15866.7 3214.47 15799.4 3141.53C15731.8 3067.95 15644.6 3015.27 15548.1 2989.7C15489.4 2977.76 15428.9 2977.79 15370.2 2989.79C15311.5 3001.79 15255.8 3025.52 15206.5 3059.54C15111.6 3119.56 15038.9 3208.83 14999.2 3313.85" fill="#455A64"/>
<path d="M14666.7 4644.99C14666.7 4644.99 14845.9 3420.89 15044.4 2747.16C15242.9 2073.44 15435.4 1304.82 15435.4 1304.82L15513.5 1326.07C15513.5 1326.07 15096 2659.48 14931.3 3489.59C14766.6 4319.7 14822.4 4689.39 14822.4 4689.39L14666.7 4648.78" fill="#455A64"/>
<path d="M16381.2 84.139C16378.9 88.606 16376.1 92.8062 16372.9 96.6647L16347.1 131.205C16324.3 160.432 16292 203.702 16252.6 257.6C16173.6 365.017 16069.2 516.843 15965.2 691.442C15861.2 866.042 15778.1 1030.77 15721.5 1151.47C15693.1 1211.83 15670.7 1260.79 15655.5 1294.95C15648.3 1310.89 15642.6 1323.8 15637.7 1332.91C15636 1337.61 15633.7 1342.08 15630.8 1346.19C15631.8 1341.36 15633.4 1336.65 15635.4 1332.15C15639.2 1321.52 15644.5 1308.23 15650.9 1291.91C15664.2 1256.99 15685.5 1207.27 15712.8 1146.54C15855.8 828.982 16034.1 528.504 16244.2 250.768C16284.4 197.629 16318.2 155.118 16342.1 126.65C16353.5 113.365 16362.6 102.358 16370.2 94.0078C16377.8 85.6574 16380.8 83.7595 16381.2 84.139Z" fill="#455A64"/>
<path d="M15304 1924.65C15191.9 1797.03 15114.4 1642.78 15078.9 1476.64C15043.4 1310.5 15051.1 1138.03 15101.3 975.736C15169.3 741.924 15317.3 540.755 15471.4 352.491C15483 334.567 15500.5 321.17 15520.8 314.535C15535.6 313.918 15550.3 317.077 15563.6 323.716C15576.9 330.354 15588.3 340.256 15596.7 352.491C15765.2 542.273 15813.8 814.801 15801.6 1069.11C15797.5 1239.2 15758 1406.57 15685.9 1560.65C15601.9 1719.69 15468.7 1847.36 15306.3 1924.65" fill="#455A64"/>
<path d="M15304 1924.65C15304.8 1919.73 15306.1 1914.91 15307.8 1910.22C15311.2 1899.6 15315.4 1886.31 15320.7 1870.37C15332.5 1835.83 15348.4 1785.35 15366.7 1722.72C15413.5 1559.45 15450.7 1393.54 15477.9 1225.87C15509.4 1029.26 15528 849.721 15540.5 719.91C15546.6 656.143 15551.9 606.041 15555.3 568.084C15557.3 550.877 15558.8 536.833 15559.9 525.953C15559.9 516.464 15561.7 511.529 15562.5 511.529C15563 516.452 15563 521.41 15562.5 526.332C15562.5 537.34 15562.5 551.384 15562.5 568.464C15560.6 606.42 15557.2 657.662 15551.9 722.567C15541.6 852.758 15524.9 1032.67 15492.7 1230.04C15466.3 1398.22 15428.2 1564.36 15378.8 1727.27C15359.1 1789.9 15340.8 1841.14 15328.7 1873.79C15322.6 1889.73 15317.3 1902.63 15313.5 1911.74C15311 1916.5 15307.8 1920.85 15304 1924.65Z" fill="#263238"/>
<g opacity="0.2">
<path d="M14998.9 3314.99C15202.2 3304.63 15405 3345.21 15588.7 3433.04C15771.6 3520.91 15946.9 3623.74 16112.9 3740.48C16128.4 3609.91 16052.1 3487.69 15979.3 3378C15926.9 3293.65 15866.7 3214.47 15799.4 3141.53C15731.8 3067.95 15644.6 3015.27 15548.1 2989.7C15489.4 2977.76 15428.9 2977.79 15370.2 2989.79C15311.5 3001.79 15255.8 3025.52 15206.5 3059.54C15111.6 3119.56 15038.9 3208.83 14999.2 3313.85" fill="black"/>
</g>
<path d="M15884 4312.11C15884 4312.11 15880.2 4309.45 15873.8 4303.76C15867.3 4298.06 15857.4 4288.95 15846.4 4279.08C15823.3 4257.07 15789.9 4224.81 15747.4 4186.47C15726.5 4167.11 15702.9 4146.24 15677.1 4124.6C15651.3 4102.97 15624.4 4079.43 15594.8 4055.9C15531.5 4004.13 15463.9 3957.79 15392.8 3917.36C15322.7 3875.76 15243.5 3852.04 15162.1 3848.28C15126.5 3846.63 15090.9 3847.52 15055.4 3850.94C15024.7 3854.8 14994.3 3861.27 14964.7 3870.29C14921.7 3883.45 14880.7 3902.07 14842.5 3925.71C14815.5 3942.41 14801.5 3953.42 14800.7 3952.66C14800 3951.9 14803.8 3949.24 14810.2 3943.55C14819.7 3935.55 14829.5 3928.07 14839.8 3921.16C14877.6 3895.61 14918.7 3875.43 14962 3861.18C14991.9 3851.28 15022.7 3844.17 15053.9 3839.93C15089.9 3835.75 15126.2 3834.48 15162.4 3836.13C15245.9 3839.28 15327.3 3863.15 15399.3 3905.59C15471.2 3946.25 15539.2 3993.25 15602.7 4046.03C15632 4070.32 15659.7 4093.48 15684.7 4116.25C15709.8 4139.03 15732.9 4159.52 15753.8 4179.64C15795.6 4217.6 15827.8 4252.14 15850.2 4275.29L15875.6 4301.86C15878.7 4305.03 15881.5 4308.46 15884 4312.11Z" fill="#455A64"/>
<path d="M14417.7 3895.35C14425.3 3898.46 14432.3 3902.68 14438.6 3907.87C14456.8 3920.73 14474.1 3934.67 14490.6 3949.63C14545.4 3999.12 14592.6 4056.42 14630.7 4119.67C14668.6 4182.79 14696.9 4251.24 14714.6 4322.74C14719.9 4344.36 14724 4366.29 14726.7 4388.4C14728.1 4396.57 14728.1 4404.9 14726.7 4413.07C14724.4 4413.07 14719.1 4378.91 14703.9 4325.39C14663.9 4185.08 14587.6 4057.81 14482.6 3956.46C14444.3 3917.74 14416.2 3897.25 14417.7 3895.35Z" fill="#455A64"/>
<path d="M13941.4 2433.64C13946.4 2436.06 13951.1 2438.99 13955.4 2442.37L13993.4 2469.7L14054.9 2513.73C14079.2 2530.81 14104.2 2551.69 14133.1 2576.74C14281.6 2701.8 14412.8 2846.03 14523.3 3005.65C14583 3094.04 14636.8 3186.36 14684.2 3281.97C14722.6 3360.33 14756.8 3440.66 14786.7 3522.62C14812.1 3592.46 14830.3 3649.77 14842.5 3689.24C14848.5 3707.84 14853.1 3723.03 14856.9 3734.79C14858.8 3740.1 14860.2 3745.56 14861.1 3751.11C14858.5 3746.21 14856.2 3741.14 14854.2 3735.93C14850.4 3725.68 14844.4 3710.5 14837.5 3690.76C14823.9 3652.81 14804.5 3595.11 14777.9 3525.65C14751.4 3456.19 14716.5 3373.83 14673.2 3287.66C14625.5 3192.83 14571.7 3101.17 14512.3 3013.24C14403.6 2854.86 14275.5 2710.66 14131.2 2583.95C14102.7 2560.42 14078 2537.27 14055.3 2519.81L13995.3 2473.88L13957.3 2444.65C13951.6 2441.68 13946.2 2437.98 13941.4 2433.64Z" fill="#455A64"/>
<path d="M15597.8 3260.33C15588.2 3257.44 15578.9 3253.5 15570.1 3248.57L15538.2 3233.38C15526.1 3227.69 15510.9 3223.52 15494.9 3217.06C15411 3186.12 15320 3179.79 15232.7 3198.84C15184.7 3209.1 15138.7 3227.05 15096.4 3251.98C15061.4 3271.72 15028.7 3295.27 14998.9 3322.2C14971.7 3347.64 14946.4 3374.91 14922.9 3403.81C14926.7 3394.4 14931.8 3385.59 14938.1 3377.62C14954 3355.12 14972 3334.26 14992 3315.37C15021.4 3286.09 15054.3 3260.59 15090 3239.46C15150.7 3202.68 15219.2 3180.61 15290 3175.01C15360.7 3169.4 15431.8 3180.43 15497.6 3207.19C15513.5 3214.03 15528.7 3218.96 15540.9 3225.79L15571.6 3242.87C15581 3247.63 15589.8 3253.49 15597.8 3260.33Z" fill="#455A64"/>
<path d="M16319 2069.64C16313.8 2071.54 16308.5 2073.07 16303 2074.2L16256.7 2083.68C16216.5 2093.17 16158.4 2107.22 16087.1 2126.95C16015.7 2146.69 15931.4 2172.5 15840 2206.66C15740.4 2242.34 15644.1 2286.66 15552.3 2339.13C15504.4 2366.34 15460.5 2399.92 15421.7 2438.96C15385.6 2476.91 15351.1 2514.87 15318.8 2552.83C15260.9 2617.24 15206.5 2684.65 15155.6 2754.75C15121.8 2802.17 15090.8 2851.61 15063 2902.78C15042.9 2940.74 15033.8 2960.1 15032.6 2959.72C15033.9 2954.21 15035.8 2948.86 15038.3 2943.78C15042.5 2933.91 15049 2919.11 15058.1 2900.51C15084.5 2847.87 15114.5 2797.14 15148 2748.68C15197.8 2677.41 15251.6 2609.1 15309.3 2544.1C15341.6 2506.14 15376.1 2468.18 15412.2 2430.23C15451.7 2390.95 15496.2 2357.12 15544.7 2329.64C15637.4 2276.87 15734.7 2232.66 15835.4 2197.55C15927.6 2164.15 16012.7 2139.48 16084 2121.64C16155.4 2103.8 16214.6 2090.52 16255.2 2083.68L16302.3 2074.95L16319 2069.64Z" fill="#455A64"/>
<path d="M14988.2 3126.73C14986.8 3116.02 14986.8 3105.17 14988.2 3094.47C14988.2 3070.93 14988.2 3041.33 14988.2 3006.03C14989.3 2909.05 14984.6 2812.08 14974.2 2715.66C14962.7 2619.31 14945.5 2523.74 14922.6 2429.47C14914.6 2395.31 14908.1 2366.46 14902.8 2343.69C14899.9 2333.13 14897.8 2322.34 14896.8 2311.42C14901.6 2321.21 14905.3 2331.52 14907.8 2342.17C14913.8 2362.29 14922.2 2391.13 14932.1 2427.19C14983.9 2615.67 15006.1 2811.09 14997.7 3006.41C14997.7 3044.36 14994.3 3073.59 14992.4 3094.47C14992 3105.33 14990.6 3116.13 14988.2 3126.73Z" fill="#455A64"/>
<path d="M15130.6 2284.09C15147.6 2142.42 15134.7 1998.75 15092.6 1862.4C15035.6 1675.37 14938.2 1503.12 14807.5 1357.74C14676.7 1212.36 14515.7 1097.38 14335.8 1020.9C14528.3 1484.48 14720.1 1948.43 14911.2 2412.77L14973.4 2653.41C15063.7 2550.14 15118.8 2420.77 15130.6 2284.09Z" fill="#455A64"/>
<g opacity="0.2">
<path d="M15130.6 2284.09C15147.6 2142.42 15134.7 1998.75 15092.6 1862.4C15035.6 1675.37 14938.2 1503.12 14807.5 1357.74C14676.7 1212.36 14515.7 1097.38 14335.8 1020.9C14528.3 1484.48 14720.1 1948.43 14911.2 2412.77L14973.4 2653.41C15063.7 2550.14 15118.8 2420.77 15130.6 2284.09Z" fill="black"/>
</g>
<path d="M7968.73 15516.8C8399.49 15087.2 8206.55 14195.3 7537.79 13524.7C6869.03 12854.1 5977.69 12658.6 5546.93 13088.2C5116.16 13517.8 5309.1 14409.6 5977.87 15080.3C6646.63 15750.9 7537.97 15946.3 7968.73 15516.8Z" fill="#263238"/>
<path d="M6219.15 14848.4C5608.81 14238.1 5393.6 13444 5685.1 12980.6C5634.4 13011.1 5587.62 13047.7 5545.8 13089.5C5116.13 13520.7 5310.85 14412.7 5980.4 15082.6C6649.95 15752.6 7540.79 15945.8 7970.08 15515C8007.99 15477.4 8041.37 15435.4 8069.53 15390.1C7606.46 15669.1 6823.04 15452.3 6219.15 14848.4Z" fill="#455A64"/>
<path d="M6901.98 14025.5L7442.48 13449.7L7507.01 13513.9C7507.01 13513.9 7051.53 14045.3 7042.04 14172.4L6901.98 14025.5Z" fill="#455A64"/>
<path d="M6020.64 13693.8L5280.11 14799.5L6402.1 15921.8L7517.26 15071.2L6020.64 13693.8Z" fill="#BA68C8"/>
<path d="M6409.31 15915.8C6307.97 16015.2 5977.37 15842.1 5670.68 15529.4C5363.99 15216.6 5198.12 14884.1 5299.46 14783.2C5400.81 14682.2 5731.41 14856.8 6038.1 15169.6C6344.78 15482.3 6511.03 15816.3 6409.31 15915.8Z" fill="#BA68C8"/>
<g opacity="0.3">
<path d="M6409.31 15915.8C6307.97 16015.2 5977.37 15842.1 5670.68 15529.4C5363.99 15216.6 5198.12 14884.1 5299.46 14783.2C5400.81 14682.2 5731.41 14856.8 6038.1 15169.6C6344.78 15482.3 6511.03 15816.3 6409.31 15915.8Z" fill="black"/>
</g>
<path d="M7550.66 15155.9C7458.05 15240.1 6989.29 15168 6477.63 14697.4C5965.98 14226.7 5676.37 13872.6 5937.13 13596.6C6151.59 13368.9 6579.74 13542.4 7091.39 14014.2C7603.04 14486 7855.07 14878.8 7550.66 15155.9Z" fill="#BA68C8"/>
<path d="M6402.1 15921.8C6407.88 15916.3 6413.96 15911.1 6420.32 15906.3L6473.84 15862.6L6679.18 15699.4L7407.56 15126.7C7417.8 15111.6 7424.54 15094.5 7427.3 15076.5C7430.06 15058.5 7428.76 15040.1 7423.51 15022.7C7415.53 14983.9 7402.78 14946.3 7385.55 14910.7C7348.99 14835.4 7305.4 14763.7 7255.36 14696.6C7028.48 14397 6750.25 14139.9 6433.6 13937.5C6357.21 13889.4 6276.37 13848.7 6192.2 13816C6152.6 13800.5 6111.33 13789.7 6069.22 13783.8C6050.25 13779.3 6030.52 13779.1 6011.48 13783.3C5992.44 13787.4 5974.56 13795.7 5959.15 13807.7L5469.51 14528.1L5330.59 14729.3L5292.63 14782C5288.56 14788.2 5283.99 14794 5278.97 14799.5C5282.24 14792.8 5286.04 14786.5 5290.35 14780.5L5325.27 14726.2L5459.64 14522.4L5942.83 13801.2C5958.9 13785.3 5979.67 13775.1 6002.04 13772C6023.68 13768.8 6045.68 13768.8 6067.32 13772C6110.93 13778 6153.71 13789 6194.86 13804.6C6280.22 13837.5 6362.21 13878.6 6439.68 13927.2C6759.4 14128.2 7040.43 14384.9 7269.4 14685.2C7320 14753.5 7364.09 14826.3 7401.11 14902.7C7418.36 14939.9 7431.1 14979 7439.07 15019.2C7444.86 15039.4 7445.99 15060.6 7442.37 15081.2C7438.75 15101.9 7430.49 15121.4 7418.19 15138.4L6685.25 15705.5L6476.87 15864.5L6421.46 15906.3C6415.5 15912.1 6409.02 15917.3 6402.1 15921.8Z" fill="#263238"/>
<path d="M11791.6 13622.5V13805.4H11116V12964.7H11776.4V13148.8H11352.1V13290.7H11726V13468.8H11352.1V13622.5H11791.6Z" fill="#263238"/>
<path d="M12292.3 13583H12162.1V13805.4H11924.1V12964.7H12309C12538.6 12964.7 12682.8 13083.9 12682.8 13276.3C12685.1 13332 12670.5 13387.1 12641.2 13434.4C12611.8 13481.8 12569 13519.2 12518.1 13542L12699.5 13807.7H12444.9L12292.3 13583ZM12294.5 13152.6H12162.1V13398.9H12294.5C12393.2 13398.9 12442.2 13353.4 12442.2 13276.3C12442.2 13199.3 12393.2 13152.6 12294.5 13152.6Z" fill="#263238"/>
<path d="M13181.6 13583H13051.8V13805.4H12813.8V12964.7H13198.7C13428.3 12964.7 13572.5 13083.9 13572.5 13276.3C13574.8 13332 13560.2 13387.1 13530.9 13434.4C13501.5 13481.8 13458.7 13519.2 13407.8 13542L13589.2 13807.7H13334.6L13181.6 13583ZM13184.2 13152.6H13051.8V13398.9H13184.2C13282.9 13398.9 13331.9 13353.4 13331.9 13276.3C13331.9 13199.3 13282.9 13152.6 13184.2 13152.6Z" fill="#263238"/>
<path d="M13660.2 13385.6C13660.2 13133.2 13858.7 12948 14127.8 12948C14397 12948 14595.8 13133.2 14595.8 13385.6C14595.8 13638 14397.3 13823.3 14127.8 13823.3C13858.4 13823.3 13660.2 13638 13660.2 13385.6ZM14355.2 13385.6C14355.2 13240.3 14255.4 13145 14127.5 13145C13999.6 13145 13899.7 13240.3 13899.7 13385.6C13899.7 13531 13999.2 13626.3 14127.5 13626.3C14255.8 13626.3 14355.2 13531 14355.2 13385.6Z" fill="#263238"/>
<path d="M15088.5 13583H14958.7V13805.4H14720.7V12964.7H15105.2C15334.9 12964.7 15479.5 13083.9 15479.5 13276.3C15481.6 13332 15467 13387 15437.7 13434.3C15408.3 13481.7 15365.5 13519.2 15314.7 13542L15496.2 13807.7H15241.1L15088.5 13583ZM15090.8 13152.6H14958.7V13398.9H15090.8C15189.5 13398.9 15238.8 13353.4 15238.8 13276.3C15238.8 13199.3 15189.5 13152.6 15090.8 13152.6Z" fill="#263238"/>
<path d="M9801.86 10992.1H7762.46V9993.05L9705.07 5268.23H10870.3V9993.05H11375.5V10992.1H10870.3V12260.6H9801.86V10992.1ZM9801.86 9993.05V7265.88H9782.5L8733.76 9993.05H9801.86Z" fill="#BA68C8"/>
<g opacity="0.3">
<path d="M9801.86 10992.1H7762.46V9993.05L9705.07 5268.23H10870.3V9993.05H11375.5V10992.1H10870.3V12260.6H9801.86V10992.1ZM9801.86 9993.05V7265.88H9782.5L8733.76 9993.05H9801.86Z" fill="black"/>
</g>
<path d="M9315.63 10992.1H7276.23V9993.05L9218.47 5268.23H10384.1V9993.05H10888.9V10992.1H10384.1V12260.6H9315.63V10992.1ZM9315.63 9993.05V7265.88H9296.28L8247.92 9993.05H9315.63Z" fill="#BA68C8"/>
<path d="M12229.2 11901.1C11950.8 11594.7 11811.7 11161.7 11811.7 10602.3V6926.55C11811.7 6367.07 11950.8 5934.11 12229.2 5627.68C12507.5 5321.24 12909 5168.15 13433.5 5168.41C13958.1 5168.41 14359.5 5321.5 14637.9 5627.68C14916.2 5933.86 15055.4 6366.82 15055.4 6926.55V10602.3C15055.4 11161.7 14916.2 11594.7 14637.9 11901.1C14359.5 12207.6 13958.1 12360.6 13433.5 12360.4C12909 12360.4 12507.5 12207.3 12229.2 11901.1ZM13986.9 10672.5V6856.33C13986.9 6397.06 13802.5 6167.42 13433.5 6167.42C13064.6 6167.42 12879.6 6397.06 12878.6 6856.33V10672.5C12878.6 11131.7 13063.2 11361.4 13432.4 11361.4C13801.6 11361.4 13986.4 11131.7 13986.9 10672.5Z" fill="#BA68C8"/>
<g opacity="0.3">
<path d="M14637.9 5627.68C14359.5 5321.75 13958.1 5168.66 13433.5 5168.41C12909 5168.15 12507.5 5321.24 12229.2 5627.68C11950.8 5934.37 11811.7 6367.32 11811.7 6926.55V10602.3C11811.7 11161.7 11950.8 11594.7 12229.2 11901.1C12507.5 12207.6 12909 12360.6 13433.5 12360.4C13958.1 12360.4 14359.5 12207.3 14637.9 11901.1C14916.2 11594.9 15055.4 11162 15055.4 10602.3V6926.55C15055.4 6367.07 14916.2 5934.11 14637.9 5627.68ZM13986.9 10672.5C13986.9 11131.7 13802.5 11361.4 13433.5 11361.4C13064.6 11361.4 12879.7 11073.3 12879.7 10672.5V6856.33C12879.7 6438.81 13064.6 6167.42 13433.5 6167.42C13802.5 6167.42 13986.9 6395.16 13986.9 6856.33V10672.5Z" fill="black"/>
</g>
<path d="M11742.9 11901.1C11464.6 11594.7 11325.4 11161.7 11325.4 10602.3V6926.55C11325.4 6367.07 11464.6 5934.11 11742.9 5627.68C12021.3 5321.24 12422.6 5168.15 12946.9 5168.41C13471.5 5168.41 13872.9 5321.5 14151.3 5627.68C14429.6 5933.86 14568.8 6366.82 14568.8 6926.55V10602.3C14568.8 11161.7 14429.6 11594.7 14151.3 11901.1C13872.9 12207.6 13471.5 12360.6 12946.9 12360.4C12422.9 12360.4 12021.5 12207.3 11742.9 11901.1ZM13500.7 10672.1V6856.33C13500.7 6397.06 13316.1 6167.42 12946.9 6167.42C12577.7 6167.42 12393.3 6397.06 12393.5 6856.33V10672.1C12393.5 11131.9 12578 11361.6 12946.9 11361.4C13315.9 11361.1 13500.5 11131.4 13500.7 10672.1Z" fill="#BA68C8"/>
<path d="M17441 10992.1H15401.6V9993.05L17343.8 5268.23H18509.4V9993.05H19014.3V10992.1H18509.4V12260.6H17441V10992.1ZM17441 9993.05V7266.26H17421.6L16372.5 9993.05H17441Z" fill="#BA68C8"/>
<g opacity="0.3">
<path d="M17441 10992.1H15401.6V9993.05L17343.8 5268.23H18509.4V9993.05H19014.3V10992.1H18509.4V12260.6H17441V10992.1ZM17441 9993.05V7266.26H17421.6L16372.5 9993.05H17441Z" fill="black"/>
</g>
<path d="M16954.8 10992.1H14915V9993.05L16857.6 5268.23H18022.8V9993.05H18528V10992.1H18022.8V12260.6H16954.8V10992.1ZM16954.8 9993.05V7265.88H16935L15886.3 9993.05H16954.8Z" fill="#BA68C8"/>
<path d="M20838.8 11141.1C21340 11039.9 21489.4 9684.93 21172.4 8114.61C20855.5 6544.3 20192.3 5353.3 19691.1 5454.45C19190 5555.59 19040.6 6910.58 19357.5 8480.9C19674.4 10051.2 20337.6 11242.2 20838.8 11141.1Z" fill="#263238"/>
<path d="M20898 8178.36C20609.2 6747.02 20032.6 5631.1 19553.2 5521.4C19593.3 5488.91 19640.6 5466.4 19691 5455.74C20192.1 5354.77 20855.2 6545.85 21171.3 8116.11C21487.5 9686.36 21338.7 11041.4 20837.3 11142.4C20792.1 11151.2 20745.5 11150.2 20700.7 11139.3C21090.1 10834.9 21183.5 9594.13 20898 8178.36Z" fill="#455A64"/>
<path d="M25906.4 5472.06L26443.1 4688.26C26443.1 4688.26 27420.1 4970.65 27533.2 4835.53L26052.9 3740.11L25164.7 4926.62L25906.4 5472.06Z" fill="#263238"/>
<path d="M25937.5 4413.83C25926.5 4398.9 25921.4 4380.46 25923.1 4362C25924.8 4343.55 25933.1 4326.34 25946.6 4313.63C25961.1 4302.04 25979.4 4296.45 25997.8 4298C26016.3 4299.56 26033.4 4308.14 26045.7 4321.98C26057.4 4337.76 26062.9 4357.33 26061 4376.9C26059.1 4396.47 26050 4414.63 26035.5 4427.88C26019.1 4438.16 25999.4 4441.81 25980.4 4438.07C25961.4 4434.33 25944.6 4423.49 25933.4 4407.76" fill="#E0E0E0"/>
<path d="M26051.4 3740.11L25966.8 3863.08L27419.3 4867.41C27419.3 4867.41 27506.6 4887.53 27533.2 4835.53L26051.4 3740.11Z" fill="#455A64"/>
<path d="M26461.7 4713.69C26466.6 4706.1 26432.9 4675.73 26414.6 4626.39C26396.4 4577.04 26399.8 4532.26 26391.1 4530.36C26382.4 4528.46 26361.9 4578.18 26385.4 4637.77C26408.9 4697.37 26458.3 4721.28 26461.7 4713.69Z" fill="white"/>
<path d="M26664.8 4764.17C26671.6 4758.48 26649.2 4722.8 26647.3 4674.21C26645.4 4625.63 26662.1 4587.67 26654.5 4582.74C26646.9 4577.8 26612.4 4615.38 26616.6 4675.73C26620.7 4736.08 26659.5 4771 26664.8 4764.17Z" fill="white"/>
<path d="M26890.6 4643.47C26884.9 4637.02 26848.1 4665.48 26837.5 4719.38C26826.8 4773.28 26848.9 4813.51 26856.5 4809.72C26864 4805.92 26858.7 4769.48 26868.2 4725.83C26877.7 4682.18 26897.1 4649.54 26890.6 4643.47Z" fill="white"/>
<path d="M26319.4 4878.42C26319.4 4869.69 26281.4 4855.27 26243.5 4822.24C26205.5 4789.22 26182.3 4752.78 26174 4756.2C26165.6 4759.62 26177 4807.82 26223.3 4846.16C26269.6 4884.49 26319 4886.77 26319.4 4878.42Z" fill="white"/>
<path d="M25391.3 8656.99L25933 7876.6C25933 7876.6 26908.1 8165.07 27022.3 8028.43L25546.6 6924.27L24653.1 8107.38L25391.3 8656.99Z" fill="#263238"/>
<path d="M25428.9 7599.14C25418.1 7584.15 25413.2 7565.74 25415 7547.36C25416.8 7528.99 25425.3 7511.91 25438.8 7499.31C25453.3 7487.78 25471.6 7482.25 25490.1 7483.87C25508.5 7485.5 25525.6 7494.15 25537.8 7508.04C25549.4 7523.95 25554.6 7543.56 25552.6 7563.1C25550.6 7582.65 25541.4 7600.75 25526.8 7613.94C25510.4 7624.15 25490.6 7627.67 25471.6 7623.79C25452.7 7619.91 25435.9 7608.92 25424.7 7593.07" fill="#E0E0E0"/>
<path d="M25546.6 6926.17L25461.2 7048.77L26908.1 8061.83C26908.1 8061.83 26995 8082.33 27021.9 8030.32L25546.6 6926.17Z" fill="#455A64"/>
<path d="M25951.2 7902.03C25956.5 7894.82 25922.7 7864.07 25904.5 7814.73C25886.3 7765.39 25890.5 7720.6 25881.7 7718.32C25873 7716.04 25852.5 7766.15 25875.3 7825.74C25898.1 7885.33 25947.8 7909.62 25951.2 7902.03Z" fill="white"/>
<path d="M26153.9 7954.03C26160.7 7947.96 26138.7 7912.66 26137.2 7863.69C26135.7 7814.73 26152.4 7777.53 26145.1 7772.22C26137.9 7766.9 26102.6 7804.48 26107.2 7865.21C26111.7 7925.94 26148.6 7960.48 26153.9 7954.03Z" fill="white"/>
<path d="M26380.5 7834.47C26375.2 7828.02 26338 7856.48 26327 7910.38C26316 7964.28 26338 8004.89 26345.6 8001.1C26353.1 7997.3 26347.8 7960.48 26357.7 7916.83C26367.6 7873.18 26386.9 7840.54 26380.5 7834.47Z" fill="white"/>
<path d="M25808.1 8066.38C25810 8057.27 25770.1 8042.47 25732.2 8009.45C25694.2 7976.42 25671.5 7939.61 25663.1 7943.02C25654.7 7946.44 25666.1 7994.64 25712.1 8033.36C25758 8072.07 25807.3 8074.35 25808.1 8066.38Z" fill="white"/>
<path d="M19801.5 9222.54C19852 9222.54 24352.8 7925.94 24666 7644.31C24979.1 7362.67 26257.5 5132.35 26257.5 5132.35L25349.6 4392.2L23772.1 6448.68L21001.3 6698.81C21001.3 6698.81 19833 6619.1 19629.5 7037L19608.3 7663.29L19801.5 9222.54Z" fill="#263238"/>
<path d="M19801.5 9222.54C19868.3 9224.43 21878.8 11462 22508.5 11589.1C23138.2 11716.3 23455.2 11281.7 23670.4 11019.8C23944.4 10689.6 25810.4 8308.55 25810.4 8308.55L24872.8 7534.23L22823.2 9717.87L21589.2 8018.56L20513.5 7917.59L19858 8498.33L19801.5 9222.54Z" fill="#263238"/>
<path d="M22639.5 9927.01C22639.5 9927.01 22641.4 9923.59 22646.3 9917.52L22668.7 9892.09L22756 9794.54L23079.8 9438.51L23561.8 8912.43L23847.3 8602.71C23947.8 8496.81 24051.8 8387.11 24158.1 8274.38L24867.5 7527.78L24873.6 7521.71L24880.1 7527.02L25556.1 8090.29L25745.8 8250.09L25795.6 8292.98C25801.4 8297.69 25806.9 8302.89 25811.9 8308.54C25805.5 8304.63 25799.4 8300.19 25793.7 8295.26L25742.1 8254.65L25549.6 8098.64L24869.8 7541.06H24882.3C24673.2 7762.73 24431.4 8018.18 24174.8 8289.19L23863.6 8617.51L23577 8926.48L23088.9 9447.24L22760.6 9798.71L22670.2 9893.61L22646.3 9917.9L22639.5 9927.01Z" fill="#455A64"/>
<path d="M22613.7 8390.91C22594.8 8399.41 22575.2 8406.39 22555.2 8411.79L22394.3 8460.37C22258.4 8502.5 22070.1 8559.06 21862.9 8626.24L21711.1 8676.34C21664.4 8690.43 21618.6 8707.42 21574.1 8727.2C21499.5 8762.17 21439.5 8822.04 21404.4 8896.49C21381.8 8947.42 21365.6 9000.97 21356.2 9055.91C21353.7 9076.4 21349.7 9096.69 21344.4 9116.64C21343.4 9111.24 21343.4 9105.71 21344.4 9100.32C21344.4 9089.69 21344.4 9074.51 21348.6 9054.77C21355.2 8998.25 21369.6 8942.94 21391.5 8890.42C21426.5 8811.75 21488.4 8748.11 21566.1 8710.88C21611.2 8690.21 21657.6 8672.59 21705 8658.12L21856.8 8607.26C22063.3 8540.08 22252.3 8485.8 22388.2 8447.09C22456.9 8427.73 22512.3 8412.92 22551.1 8402.68C22571.5 8396.75 22592.5 8392.81 22613.7 8390.91Z" fill="#455A64"/>
<path d="M19195.3 7297.76C19197.8 7291.36 19201 7285.25 19204.8 7279.54C19208.2 7273.47 19212.4 7266.26 19217.3 7258.67L19237.5 7231.72C19282.6 7176.49 19335.7 7128.27 19395 7088.62C19542.6 6984.24 19774.5 6885.18 20040.2 6811.92C20266 6749.04 20497.4 6708.49 20731 6690.84C20801.9 6685.95 20873 6685.06 20944 6688.18C20969 6688.18 20988.4 6691.6 21001.7 6693.5C21008.4 6693.94 21015 6695.08 21021.4 6696.91C21021.4 6698.81 20993.7 6696.91 20943.6 6696.91C20893.5 6696.91 20821.4 6696.91 20732.2 6706.02C20500 6727.59 20270.2 6769.77 20045.5 6832.04C19782.9 6904.91 19552.1 7000.94 19404.8 7101.15C19345.8 7139.44 19292 7185.39 19245 7237.79L19223.8 7263.22L19209.7 7282.96C19200.3 7292.45 19196.1 7298.14 19195.3 7297.76Z" fill="#455A64"/>
<path d="M21058.6 10472.1C21053 10469.3 21047.8 10465.8 21043 10461.8L21000.5 10428.8L20845.3 10306.6C20714 10203.7 20528 10068.2 20320.7 9919.79C20143.6 9793.37 19973.5 9657.28 19811.4 9512.14C19749.9 9455.59 19700.5 9409.28 19667.5 9376.26L19629.5 9338.3C19624.9 9334.13 19620.9 9329.42 19617.4 9324.26C19617.4 9324.26 19623.1 9327.67 19632.6 9335.64C19642.1 9343.62 19656.9 9356.52 19672.8 9370.94L19820.8 9501.51C19946.9 9611.21 20124.5 9755.44 20332.9 9903.85C20541.3 10052.3 20725.3 10189.7 20854.4 10295.6C20918.9 10348.7 20970.9 10392 21006.2 10422.7L21046.5 10458.4C21051 10462.5 21055.1 10467.1 21058.6 10472.1Z" fill="#455A64"/>
<path d="M7149.96 8896.17C7740.76 7317.7 7811.3 5885.25 7307.53 5696.69C6803.75 5508.14 5916.43 6634.89 5325.64 8213.35C4734.84 9791.82 4664.3 11224.3 5168.07 11412.8C5671.85 11601.4 6559.17 10474.6 7149.96 8896.17Z" fill="#263238"/>
<path d="M5600.46 8324.1C6138.68 6885.18 6923.62 5822.02 7439.83 5787.85C7403.65 5747.43 7358.38 5716.21 7307.74 5696.76C6804.06 5506.98 5916.63 6635.04 5326.03 8213.65C4735.43 9792.26 4664.45 11224.4 5168.13 11413C5213.78 11429.6 5262.42 11436.3 5310.85 11432.7C4957.85 11051.7 5067.55 9747.09 5600.46 8324.1Z" fill="#455A64"/>
<path d="M326.409 4771C326.409 4771 192.043 4429.39 133.97 4304.51C75.8966 4179.64 88.4222 3801.59 127.138 3732.89C138.573 3714.88 144.897 3694.1 145.432 3672.77C145.967 3651.44 140.693 3630.37 130.174 3611.81C130.174 3611.81 -67.9583 3242.49 24.6554 3151.4L78.5536 3145.33C78.5536 3145.33 277.066 3541.59 283.898 3549.56C290.73 3557.53 334.001 3559.43 347.665 3490.35C361.329 3421.27 328.307 3216.3 328.307 3216.3C328.307 3216.3 252.394 3085.73 247.46 2996.16C249.257 2976.41 255.065 2957.24 264.529 2939.81C273.992 2922.38 286.912 2907.07 302.497 2894.81L329.446 2873.94C329.446 2873.94 496.075 3175.31 505.564 3248.95C515.053 3322.58 545.418 3482.38 545.418 3482.38L568.571 3463.78L570.469 3094.08C570.469 3094.08 486.965 2781.32 550.352 2714.52C613.74 2647.72 619.813 2703.51 619.813 2703.51C619.813 2703.51 738.996 3022.73 747.726 3103.57C751.521 3136.6 754.938 3454.29 754.938 3454.29L806.179 3433.04L824.018 3136.22C824.018 3136.22 764.047 2841.67 854.004 2811.69L925.742 2809.41C925.742 2809.41 994.063 3196.95 1001.65 3215.16C1009.25 3233.38 949.274 3675.58 949.274 3675.58L967.494 3717.33L1019.49 3646.73C1045.81 3591.67 1090.51 3547.51 1145.89 3521.85C1249.51 3465.3 1294.68 3506.29 1294.68 3506.29L1164.87 3737.07C1164.87 3737.07 1046.44 4006.94 998.238 4069.19C925.499 4150.5 845.315 4224.84 758.733 4291.23C732.923 4305.65 762.149 4425.22 762.149 4425.22L802.763 4508.72L326.409 4771Z" fill="#FFBF9D"/>
<path d="M846.412 3867.63C846.412 3871.81 804.66 3870.67 740.134 3886.23C656.34 3905.72 579.049 3946.65 515.836 4005C452.623 4063.36 405.659 4137.14 379.548 4219.11C359.051 4282.12 356.774 4323.87 352.978 4323.49C348.909 4286.91 352.793 4249.88 364.365 4214.94C387.373 4127.68 434.616 4048.72 500.629 3987.2C607.666 3902.17 694.586 3869.53 737.098 3869.15C773.046 3861.15 810.256 3860.63 846.412 3867.63Z" fill="#FF9A6C"/>
<path d="M863.872 3444.04C863.872 3451.63 707.871 3426.2 524.542 3474.41C341.212 3522.61 215.956 3617.5 212.16 3611.05C235.396 3586.04 262.58 3565.01 292.628 3548.8C433.714 3461.93 597.809 3419.85 763.288 3428.1C797.446 3428.09 831.391 3433.47 863.872 3444.04Z" fill="#FF9A6C"/>
<path d="M326.41 4771C339.315 4802.5 992.925 6780.42 1275.32 6992.97C1557.72 7205.53 3424.42 7752.1 3424.42 7752.1L3717.82 6757.64L1892.11 6186.4L758.734 4288.57L326.41 4771Z" fill="#FFBF9D"/>
<path d="M3838.52 6486.25L2428.82 6245.99L2127.44 7471.98L3758.43 7845.09L3838.52 6486.25Z" fill="#BA68C8"/>
<path d="M4724.04 6583.8L4641.3 4420.28C4638.26 3881.68 4322.08 3433.42 3783.86 3452.39L3734.14 3456.95C3493.49 3479.42 3270.11 3591.61 3108.37 3771.21C2946.63 3950.81 2858.38 4184.68 2861.14 4426.36C2866.45 4893.22 2878.22 5409.05 2904.03 5657.28C2957.93 6171.59 3479.83 6204.24 3479.83 6204.24L3640.01 6843.8L3822.2 6904.53L4724.04 6583.8Z" fill="#FFBF9D"/>
<path d="M3477.93 6205.37C3715.67 6182.78 3941.96 6092.55 4130.03 5945.37C4130.03 5945.37 4035.13 6359.86 3517.41 6360.61L3477.93 6205.37Z" fill="#FF9A6C"/>
<path d="M3118.86 4846.16C3120.32 4865.05 3129.05 4882.64 3143.2 4895.24C3157.36 4907.84 3175.84 4914.46 3194.78 4913.72C3204.16 4913.62 3213.43 4911.65 3222.04 4907.91C3230.65 4904.17 3238.42 4898.74 3244.9 4891.95C3251.37 4885.16 3256.42 4877.13 3259.74 4868.35C3263.07 4859.58 3264.59 4850.22 3264.24 4840.84C3262.26 4822.12 3253.4 4804.8 3239.37 4792.25C3225.34 4779.69 3207.15 4772.8 3188.32 4772.9C3178.92 4773.04 3169.64 4775.07 3161.03 4778.85C3152.42 4782.63 3144.65 4788.09 3138.18 4794.91C3131.71 4801.74 3126.67 4809.79 3123.35 4818.59C3120.04 4827.38 3118.51 4836.76 3118.86 4846.16Z" fill="#263238"/>
<path d="M2989.43 4644.98C2999.68 4653.71 3051.3 4607.03 3130.63 4600.19C3209.96 4593.36 3271.45 4627.14 3279.04 4616.9C3286.63 4606.65 3271.83 4595.64 3244.88 4578.94C3208.44 4558.4 3166.58 4549.52 3124.94 4553.51C3083.85 4557.28 3045.04 4574.03 3014.11 4601.33C2991.33 4622.97 2984.88 4640.81 2989.43 4644.98Z" fill="#263238"/>
<path d="M3744.01 4832.11C3753.88 4840.84 3805.88 4794.15 3885.21 4787.32C3964.54 4780.49 4025.65 4814.65 4033.62 4804.02C4037.41 4799.47 4026.4 4783.15 3999.46 4766.07C3963.03 4745.49 3921.12 4736.74 3879.51 4741.01C3838.36 4744.68 3799.43 4761.29 3768.3 4788.46C3745.91 4810.09 3739.07 4828.31 3744.01 4832.11Z" fill="#263238"/>
<path d="M3538.66 5225.72C3495.81 5216.34 3451.92 5212.52 3408.09 5214.33C3387.6 5214.33 3370.14 5211.67 3363.68 5198.39C3360.08 5177.68 3362.86 5156.37 3371.65 5137.28L3417.2 4977.86C3479.83 4750.12 3523.48 4565.65 3514.37 4563.38C3505.26 4561.1 3446.81 4742.53 3384.18 4969.13C3369 5024.93 3354.57 5078.07 3340.91 5129.31C3330.52 5154.82 3329.45 5183.17 3337.87 5209.4C3341.69 5216.48 3347.11 5222.56 3353.7 5227.18C3360.29 5231.79 3367.87 5234.8 3375.83 5235.97C3387.3 5237.41 3398.9 5237.41 3410.37 5235.97C3453.39 5237.91 3496.49 5234.47 3538.66 5225.72Z" fill="#263238"/>
<path d="M3677.96 4623.73C3690.49 4643.09 3765.26 4614.62 3858.64 4604.37C3952.01 4594.12 4030.96 4600.95 4038.55 4579.32C4041.59 4569.07 4024.13 4551.99 3989.97 4538.71C3944.58 4522.75 3896.06 4517.81 3848.39 4524.28C3800.74 4529.62 3755.06 4546.28 3715.16 4572.87C3685.17 4594.12 3672.27 4614.62 3677.96 4623.73Z" fill="#263238"/>
<path d="M2971.97 4444.19C2989.81 4460.89 3052.82 4436.98 3130.25 4430.15C3207.68 4423.32 3274.49 4430.15 3288.15 4411.55C3293.84 4401.68 3282.08 4384.6 3250.19 4369.8C3209.1 4351.61 3163.87 4344.79 3119.24 4350.06C3074.61 4353.91 3031.84 4369.78 2995.51 4395.99C2971.97 4416.49 2962.86 4436.98 2971.97 4444.19Z" fill="#263238"/>
<path d="M4634.09 4806.3C4642.44 4801.74 4978.35 4669.28 4999.23 5021.89C5020.1 5374.51 4661.79 5323.27 4660.66 5313.4C4659.52 5303.53 4634.09 4806.3 4634.09 4806.3Z" fill="#FFBF9D"/>
<path d="M4760.48 5172.96C4760.48 5172.96 4766.93 5177.13 4777.56 5181.31C4792.56 5186.52 4808.97 5185.84 4823.49 5179.41C4861.45 5163.47 4887.64 5103.5 4885.74 5038.59C4884.76 5008.33 4877.12 4978.65 4863.34 4951.67C4859.28 4940.86 4852.67 4931.18 4844.09 4923.45C4835.5 4915.73 4825.18 4910.17 4814 4907.26C4806.83 4905.84 4799.38 4906.95 4792.94 4910.42C4786.5 4913.88 4781.47 4919.47 4778.7 4926.24C4774.53 4936.49 4778.7 4943.32 4775.66 4944.08C4772.63 4944.84 4767.69 4938.77 4769.59 4923.97C4771.05 4915.06 4775.46 4906.91 4782.12 4900.81C4791.49 4893.1 4803.4 4889.17 4815.52 4889.8C4830.18 4891.83 4844.08 4897.56 4855.9 4906.46C4867.73 4915.37 4877.08 4927.14 4883.08 4940.67C4899.89 4970.38 4909.26 5003.72 4910.41 5037.83C4912.31 5109.19 4880.04 5177.89 4829.56 5195.73C4820.28 5199.03 4810.38 5200.19 4800.59 5199.14C4790.8 5198.09 4781.38 5194.85 4773.01 5189.66C4761.62 5181.69 4759.34 5173.72 4760.48 5172.96Z" fill="#FF9A6C"/>
<path d="M3790.31 5262.16C3777.79 5262.16 3781.58 5343 3714.4 5403.74C3647.22 5464.47 3562.58 5459.53 3562.58 5470.92C3562.58 5476.23 3582.69 5486.1 3619.13 5485.34C3666.76 5483.83 3712.33 5465.55 3747.8 5433.72C3781.73 5403.27 3802.43 5360.78 3805.5 5315.3C3807.02 5281.14 3795.63 5261.4 3790.31 5262.16Z" fill="#263238"/>
<path d="M2123.27 3998.97C2128.68 3977.56 2142.32 3959.14 2161.22 3947.72C2201.52 3926.55 2246.68 3916.34 2292.17 3918.12C2404.35 3908.93 2512.97 3874.41 2609.87 3817.15C2573.84 3802.29 2540.4 3781.79 2510.8 3756.42C2479.66 3730.68 2456.14 3696.93 2442.76 3658.8C2429.38 3620.68 2426.66 3579.63 2434.89 3540.07C2436.19 3532.6 2439.2 3525.53 2443.67 3519.41C2448.15 3513.29 2453.98 3508.28 2460.7 3504.77C2483.1 3496.04 2504.35 3517.3 2521.43 3534.38C2543.55 3560.73 2572.34 3580.65 2604.79 3592.07C2637.24 3603.48 2672.16 3605.98 2705.9 3599.28C2752.9 3593.47 2797.96 3576.98 2837.61 3551.08L2841.4 3546.15C2858.86 3526.03 2875.57 3508.19 2892.27 3488.07C3016.76 3348.39 3125.32 3250.09 3239.95 3195.43C3407.71 3115.34 3695.42 3069.41 3876.86 3105.47C4058.29 3141.53 4229.47 3277.03 4265.91 3459.6C4361.56 3368.13 4512.63 3359.78 4638.64 3401.53H4641.3C4780.98 3441.77 4869.04 3581.07 4916.48 3718.09C4919.14 3725.68 4921.8 3733.27 4924.07 3740.48C4974.71 3811.44 5041.61 3869.23 5119.17 3909.01C5132.84 3915.84 5148.78 3924.19 5151.05 3939.37C5151.22 3947.02 5149.33 3954.57 5145.6 3961.25C5141.86 3967.92 5136.4 3973.47 5129.8 3977.33C5098.39 4002.82 5061.7 4020.97 5022.38 4030.47C5036.68 4062.92 5053.83 4094.04 5073.62 4123.46C5090.7 4148.51 5111.58 4178.88 5099.05 4206.97C5093.45 4217.35 5084.82 4225.78 5074.31 4231.14C5063.8 4236.49 5051.91 4238.52 5040.22 4236.95C5016.99 4233.1 4994.78 4224.58 4974.94 4211.9L5027.32 4318.56C4978.29 4330.33 4927.17 4330.33 4878.15 4318.56C4857.27 4450.65 4850.44 4693.57 4822.35 4783.91C4728.6 4791.12 4705.45 4783.91 4659.14 4800.99C4599.17 4825.28 4629.15 4931.94 4547.93 4906.13C4506.17 4892.84 4434.06 4743.29 4418.49 4703.06C4311.65 4433.83 4263.88 4144.78 4278.44 3855.49C4217.97 3798.47 4147.09 3753.63 4069.68 3723.4L4076.13 3728.72C3928.86 3687.34 3762.61 3648.25 3629.76 3724.54C3526.9 3783.75 3471.1 3897.62 3397.47 3990.24C3257.03 4165.97 3093.81 4265.42 2868.73 4288.95C2858.11 4446.09 2868.73 4701.16 2868.73 4846.91L2726.78 4563.76C2715.77 4547.44 2706.28 4530.74 2697.17 4514.04L2694.13 4508.72C2679.71 4481.77 2665.67 4454.82 2648.21 4428.63C2632.34 4444.55 2611.13 4454.02 2588.69 4455.19C2566.24 4456.37 2544.16 4449.17 2526.72 4434.99C2509.28 4420.81 2497.73 4400.66 2494.29 4378.45C2490.86 4356.24 2495.8 4333.54 2508.15 4314.76C2519.29 4297.05 2533.12 4281.17 2549.14 4267.7C2532.42 4286.08 2511.2 4299.8 2487.58 4307.52C2463.96 4315.23 2438.74 4316.69 2414.39 4311.73C2390.33 4305.79 2368.85 4292.17 2353.23 4272.92C2337.61 4253.67 2328.7 4229.84 2327.85 4205.07C2328.83 4188.26 2334.18 4171.99 2343.36 4157.88C2352.55 4143.77 2365.26 4132.3 2380.23 4124.6C2316.62 4133.83 2251.71 4123.78 2193.87 4095.75C2151.36 4077.54 2113.78 4045.65 2123.27 3998.97Z" fill="#263238"/>
<path d="M4103.84 3529.07C4123.13 3542.36 4141.4 3557.08 4158.49 3573.1C4202.28 3620 4233.26 3677.38 4248.45 3739.72C4259.91 3782.42 4267.04 3826.17 4269.71 3870.3C4272.74 3917.74 4271.98 3968.98 4271.98 4022.12C4270.43 4078.76 4272.59 4135.43 4278.44 4191.79C4281.96 4221.64 4287.67 4251.2 4295.52 4280.22C4302.14 4311.37 4316.5 4340.35 4337.27 4364.49C4346.89 4374.44 4359.04 4381.58 4372.42 4385.13C4385.8 4388.67 4399.9 4388.49 4413.18 4384.6C4438.36 4378.55 4460.71 4364.09 4476.57 4343.61C4502.06 4303.27 4516.46 4256.93 4518.32 4209.25H4507.31C4525.44 4247.22 4548.96 4282.38 4577.15 4313.63C4604.1 4342.58 4641.27 4359.87 4680.77 4361.83C4699.19 4362.75 4717.49 4358.4 4733.53 4349.31C4748.46 4340.47 4760.27 4327.2 4767.31 4311.35C4774.3 4296.97 4777.19 4280.95 4775.67 4265.04C4773.77 4250.62 4767.09 4237.25 4756.69 4227.09L4751.37 4232.4C4784.32 4265.59 4823.9 4291.46 4867.52 4308.31C4882.7 4314.01 4894.47 4317.42 4902.82 4319.7L4915.34 4321.98C4911.46 4320.06 4907.39 4318.53 4903.2 4317.42C4891.59 4313.73 4880.19 4309.42 4869.04 4304.52C4826.12 4286.71 4787.36 4260.21 4755.17 4226.71L4749.85 4232.02C4758.89 4242.28 4764.54 4255.07 4766.03 4268.66C4767.53 4282.24 4764.79 4295.96 4758.21 4307.93C4751.45 4321.84 4740.76 4333.45 4727.46 4341.33C4712.8 4349.24 4696.28 4353.04 4679.64 4352.34C4642.79 4349.68 4608.33 4333.13 4583.23 4306.04C4556.07 4275.38 4533.45 4241 4516.04 4203.93L4507.69 4187.61L4505.41 4205.83C4503.72 4251.37 4489.97 4295.64 4465.56 4334.12C4451.59 4352.85 4431.63 4366.24 4409.01 4372.08C4397.96 4375.06 4386.33 4375.09 4375.27 4372.15C4364.21 4369.22 4354.12 4363.44 4346 4355.38C4326.8 4332.6 4313.73 4305.29 4308.04 4276.05C4299.95 4247.73 4294.23 4218.78 4290.96 4189.51C4285.04 4133.67 4282.63 4077.51 4283.75 4021.36C4283.75 3967.46 4283.75 3916.22 4280.33 3869.54C4277.25 3824.82 4269.49 3780.55 4257.18 3737.45C4241.07 3674.15 4208.45 3616.26 4162.67 3569.68C4145.43 3552.99 4125.55 3539.27 4103.84 3529.07Z" fill="#455A64"/>
<path d="M2537.37 4130.29C2537.37 4130.29 2537.37 4130.29 2541.55 4133.71L2555.21 4142.06C2562.4 4147.03 2570.03 4151.35 2577.99 4154.97C2588.37 4160.57 2599.15 4165.39 2610.25 4169.39C2681.41 4196.68 2758.27 4205.69 2833.81 4195.58C2945.87 4181 3051.32 4134.34 3137.46 4061.21C3241.7 3970.92 3326.31 3860.21 3386.08 3735.93C3419.86 3671.02 3446.43 3605.36 3476.8 3543.87C3503.92 3484.31 3539.45 3428.96 3582.31 3379.51C3620.91 3334.88 3670.12 3300.68 3725.41 3280.07C3750.61 3271.43 3776.97 3266.7 3803.6 3266.03C3828.08 3266.02 3852.45 3269.21 3876.1 3275.51C3948.59 3295.43 4010.93 3341.91 4050.7 3405.7C4064.07 3429.72 4074.64 3455.19 4082.2 3481.62C4082.2 3481.62 4082.2 3481.62 4082.2 3476.3C4082.2 3470.99 4082.2 3467.19 4078.78 3460.74C4073.33 3440.92 4065.56 3421.81 4055.63 3403.81C4039.12 3375.19 4017.96 3349.54 3993 3327.89C3959.72 3299.81 3920.93 3278.99 3879.13 3266.78C3854.42 3259.92 3828.87 3256.47 3803.22 3256.54C3775.73 3256.88 3748.45 3261.49 3722.37 3270.2C3665.16 3290.94 3614.11 3325.8 3573.96 3371.54C3530.24 3421.64 3493.94 3477.76 3466.17 3538.17C3435.42 3600.04 3408.85 3665.71 3375.45 3730.23C3316.24 3852.84 3232.98 3962.3 3130.63 4052.1C3045.9 4124.51 2942.27 4171.25 2831.91 4186.85C2757.71 4197.39 2682.05 4189.84 2611.39 4164.83C2586.07 4154.77 2561.35 4143.23 2537.37 4130.29Z" fill="#455A64"/>
<path d="M2476.26 3905.59C2482.09 3910.46 2488.61 3914.43 2495.62 3917.36C2513.75 3927.04 2532.67 3935.16 2552.17 3941.65C2580.92 3951.95 2610.51 3959.7 2640.61 3964.8C2678.22 3971.18 2716.36 3973.85 2754.48 3972.78C2791.92 3971.38 2829.14 3966.55 2865.69 3958.35C2895.55 3951.38 2924.76 3941.85 2952.99 3929.88C2972.02 3922.07 2990.42 3912.8 3008.03 3902.18C3014.76 3898.7 3021.01 3894.36 3026.63 3889.27C3026.63 3887.37 2997.78 3903.69 2950.72 3921.91C2922.72 3932.67 2893.91 3941.18 2864.56 3947.35C2792.56 3962.88 2718.33 3965.07 2645.55 3953.8C2615.85 3949.37 2586.53 3942.64 2557.87 3933.68C2505.87 3918.88 2478.54 3905.59 2476.26 3905.59Z" fill="#455A64"/>
<path d="M6326.57 10541.9L6362.24 10371.1C5932.46 10180.7 5542.12 9911.5 5211.4 9577.43L3313.58 7655.31L3362.93 7103.8L4298.17 6228.15C4452.53 6139.44 4625.17 6087.29 4802.83 6075.71C4980.48 6064.13 5158.43 6093.43 5323 6161.35C5979.64 6421.73 6257.86 6790.28 7024.2 7683.78C7327.86 8037.91 7157.43 7741.85 7454.63 7933.91C7454.63 7933.91 7268.26 8946.21 6915.65 9573.63C6656.03 10032.9 6326.57 10541.9 6326.57 10541.9Z" fill="#BA68C8"/>
<path d="M3509.06 7859.52C3482.33 7829.61 3458.92 7796.9 3439.22 7761.97C3387.3 7680.31 3340.03 7595.78 3297.64 7508.8C3254.85 7422.38 3216.83 7333.69 3183.77 7243.1C3168.77 7206.33 3157.33 7168.2 3149.61 7129.23C3168.22 7164.66 3184.08 7201.46 3197.05 7239.31C3225.14 7307.63 3265.38 7401.38 3314.72 7502.73C3364.06 7604.07 3413.41 7692.51 3450.22 7757.41C3472.19 7790.03 3491.85 7824.15 3509.06 7859.52Z" fill="#263238"/>
<g opacity="0.3">
<path d="M6816.96 9128.78C6846.9 8919.35 6825.14 8705.77 6753.58 8506.67C6634.39 8196.19 6326.57 7759.69 6326.57 7759.69L6221.05 7859.52L6816.96 9128.78Z" fill="black"/>
</g>
<path d="M5173.45 11037.2L5856.66 9247.2L5496.08 8797.04L4815.9 7962C4815.9 7962 4330.43 7709.97 4097.76 7337.99C4059.52 7268.51 4038.58 7190.84 4036.73 7111.55C4034.88 7032.27 4052.17 6953.7 4087.13 6882.52C4299.69 6480.94 4739.98 6321.52 5178 6441.84L5563.64 6694.25C5563.64 6694.25 6836.32 8689.24 6816.2 9073.36C6801.78 9345.13 5728.75 11183 5728.75 11183L5173.45 11037.2Z" fill="#FFBF9D"/>
<path d="M5221.27 10961.3L4462.14 11026.6C4422.7 11030 4384.57 11042.4 4350.73 11063C4316.88 11083.5 4288.25 11111.6 4267.05 11145L3925.44 11681.4C3925.44 11681.4 4060.94 11744.4 4150.52 11643.4C4240.1 11542.4 4385.09 11332.2 4385.09 11332.2L4320.57 11929.6C4320.57 11929.6 4495.92 11946.7 4525.15 11813.4C4547.76 11697.1 4560.46 11579 4563.11 11460.4L4734.29 12029.8C4734.29 12029.8 4919.9 11968.7 4859.93 11753.9C4821.97 11618.3 4781.74 11479 4781.74 11479L4990.12 11848.4C4990.12 11848.4 5141.94 11835.1 5103.99 11696.5C5077.8 11605.1 4997.33 11423.6 4997.33 11423.6C4997.33 11423.6 5434.59 11456.7 5521.51 11423.6C5639.93 11380.7 5761.01 11129.5 5761.01 11129.5L5221.27 10961.3Z" fill="#FFBF9D"/>
<path d="M4547.93 6336.7C4547.93 6336.7 3910.64 6678.31 3978.58 7158.08C4046.52 7637.85 4596.51 7886.84 4596.51 7886.84L5310.47 8650.15L6430.19 7677.32L5411.43 6410.72" fill="#BA68C8"/>
<path d="M5411.44 6410.72C5411.44 6410.72 5411.44 6410.72 5416.75 6416.03L5431.55 6433.11L5487.35 6500.29L5696.49 6756.5L6437.02 7670.49L6442.71 7677.32L6436.26 7683.02L5323 8652.05L5317.3 8656.6L5309.71 8663.43L5303.26 8655.84L4591.2 7891.78L4594.23 7894.06C4464.07 7829.47 4344.63 7745.23 4240.1 7644.3C4143.48 7553.29 4067.28 7442.81 4016.54 7320.15C4007.05 7290.17 3994.52 7261.7 3988.07 7231.72C3981.62 7201.73 3974.4 7172.88 3971.37 7143.66C3964.91 7086.9 3967.73 7029.47 3979.72 6973.61C4002.89 6875.33 4046.9 6783.17 4108.77 6703.36C4196.13 6591.27 4300.51 6493.55 4418.11 6413.75C4458.73 6385.67 4490.99 6365.93 4513.39 6353.02L4538.82 6338.98C4544.51 6335.94 4547.55 6334.8 4547.93 6335.18L4539.58 6340.5L4514.9 6356.06C4493.27 6369.72 4461.39 6390.22 4421.53 6419.07C4305.98 6500.11 4203.57 6598.43 4117.88 6710.57C4057.72 6789.18 4015.13 6879.79 3993 6976.27C3981.61 7030.54 3979.18 7086.32 3985.79 7141.38C3988.83 7169.85 3997.18 7198.31 4002.87 7227.54C4008.56 7256.77 4021.47 7284.47 4030.58 7313.7C4122.81 7541.44 4338.03 7743.37 4599.93 7876.22H4601.82C4822.35 8111.93 5063.37 8369.65 5314.65 8639.52H5300.6L5305.92 8634.59L6426.01 7670.87V7683.4C6122.36 7303.83 5869.57 6988.04 5691.17 6764.47L5485.45 6505.23L5431.93 6436.53C5426.24 6428.94 5421.68 6423.24 5418.27 6418.31C5415.66 6416.1 5413.36 6413.54 5411.44 6410.72Z" fill="#263238"/>
<path d="M4627.63 11107.8C4627.63 11111.2 4602.96 11110.5 4565.39 11121.1C4516.92 11134.2 4473.67 11162 4441.54 11200.5C4409.41 11239.1 4389.97 11286.7 4385.85 11336.7C4382.06 11374.7 4385.85 11399.7 4383.95 11400.1C4373.95 11380.3 4369.75 11358 4371.81 11335.9C4372.46 11282 4391.68 11229.8 4426.25 11188.4C4460.81 11146.9 4508.61 11118.6 4561.59 11108.2C4583.11 11101.8 4606.04 11101.6 4627.63 11107.8Z" fill="#FF9A6C"/>
<path d="M4697.47 11197C4697.47 11199.7 4682.67 11210.7 4656.86 11229.3C4644.33 11238.8 4629.15 11249.8 4613.97 11263.4C4597.39 11276.6 4584.34 11293.7 4576.01 11313.2C4565.04 11351.8 4562.07 11392.2 4567.28 11432C4570.65 11448.8 4572.3 11466 4572.22 11483.2C4569.94 11483.2 4560.07 11466.1 4553.24 11434.3C4543.77 11391.9 4545.21 11347.9 4557.41 11306.3C4567.27 11283.7 4582.99 11264 4602.96 11249.4C4617.81 11237.6 4633.54 11226.9 4650.03 11217.5C4677.36 11201.6 4696.34 11193.2 4697.47 11197Z" fill="#FF9A6C"/>
<path d="M5015.17 11269.1C4996 11278 4975.18 11282.8 4954.06 11283.2C4916.1 11288.5 4860.69 11291.5 4826.53 11335.6C4812.23 11354.5 4801.92 11376.1 4796.25 11399.2C4790.57 11422.2 4789.64 11446.1 4793.5 11469.6C4800.34 11505.6 4812.86 11526.9 4809.82 11528.4C4794.29 11513.3 4783.81 11493.8 4779.84 11472.6C4773.49 11446.9 4773 11420.2 4778.38 11394.3C4783.77 11368.4 4794.91 11344 4810.96 11323C4829.69 11299.9 4855.62 11283.8 4884.6 11277.1C4907.02 11272 4929.93 11269.4 4952.92 11269.1C4973.61 11267 4994.48 11267 5015.17 11269.1Z" fill="#FF9A6C"/>
<path d="M5605.39 11107.8C5535.55 11091.6 5467.23 11069.4 5401.19 11041.4C5345.77 11020.2 5296.05 11000 5260.37 10985.2C5240.7 10977.9 5221.66 10969.1 5203.43 10958.7C5203.43 10950.7 5297.57 10980.7 5408.4 11022.8C5476.59 11044.9 5542.54 11073.4 5605.39 11107.8Z" fill="#FF9A6C"/>
<g opacity="0.3">
<path d="M7311.91 7727.81C7311.91 7727.81 7175.65 8920.02 6908.82 9405.86C6641.98 9891.7 6422.21 10307.7 6422.21 10307.7L6403.24 10399.6C6403.24 10399.6 6945.25 9544.4 7043.18 9331.85C7200.36 8992.26 7325.89 8638.91 7418.19 8276.28C7516.12 7863.31 7532.06 7791.57 7529.02 7791.57C7525.99 7791.57 7374.92 7678.08 7311.91 7727.81Z" fill="black"/>
</g>
</svg>
