<?xml version="1.0" encoding="UTF-8" standalone="no"?>
<svg
   width="24"
   height="24"
   viewBox="0 0 24 24"
   fill="none"
   version="1.1"
   id="svg2"
   sodipodi:docname="csv.svg"
   inkscape:version="1.3.2 (091e20e, 2023-11-25, custom)"
   xmlns:inkscape="http://www.inkscape.org/namespaces/inkscape"
   xmlns:sodipodi="http://sodipodi.sourceforge.net/DTD/sodipodi-0.dtd"
   xmlns="http://www.w3.org/2000/svg"
   xmlns:svg="http://www.w3.org/2000/svg">
  <defs
     id="defs2" />
  <sodipodi:namedview
     id="namedview2"
     pagecolor="#ffffff"
     bordercolor="#666666"
     borderopacity="1.0"
     inkscape:showpageshadow="2"
     inkscape:pageopacity="0.0"
     inkscape:pagecheckerboard="0"
     inkscape:deskcolor="#d1d1d1"
     inkscape:zoom="9.8333333"
     inkscape:cx="11.949153"
     inkscape:cy="11.949153"
     inkscape:window-width="1366"
     inkscape:window-height="705"
     inkscape:window-x="1912"
     inkscape:window-y="590"
     inkscape:window-maximized="1"
     inkscape:current-layer="svg2" />
  <path
     d="M4 19.9063V20.6774C4 21.2934 4.31607 21.8842 4.87868 22.3197C5.44129 22.7553 6.20435 23 7 23H17C17.7956 23 18.5587 22.7553 19.1213 22.3197C19.6839 21.8842 20 21.2934 20 20.6774V19.9032M12 11V19.5161M12 19.5161L15.5 16.8065M12 19.5161L8.5 16.8065"
     stroke="black"
     stroke-width="1.5"
     stroke-linecap="round"
     stroke-linejoin="round"
     id="path1"
     style="stroke:#ffffff;stroke-opacity:1" />
  <path
     d="M6.72197 8.088C6.11397 8.088 5.59397 7.968 5.16197 7.728C4.72997 7.488 4.39664 7.152 4.16197 6.72C3.93264 6.28267 3.81797 5.768 3.81797 5.176C3.81797 4.73333 3.88197 4.336 4.00997 3.984C4.1433 3.62667 4.3353 3.32267 4.58597 3.072C4.83664 2.816 5.14064 2.61867 5.49797 2.48C5.86064 2.34133 6.26864 2.272 6.72197 2.272C6.98864 2.272 7.25797 2.30667 7.52997 2.376C7.8073 2.44 8.0473 2.53333 8.24997 2.656C8.3833 2.73067 8.47397 2.824 8.52197 2.936C8.56997 3.048 8.5833 3.16 8.56197 3.272C8.54597 3.384 8.50064 3.48 8.42597 3.56C8.35664 3.64 8.26864 3.69067 8.16197 3.712C8.0553 3.73333 7.9353 3.70933 7.80197 3.64C7.64197 3.544 7.47397 3.47467 7.29797 3.432C7.12197 3.38933 6.9433 3.368 6.76197 3.368C6.40464 3.368 6.1033 3.44 5.85797 3.584C5.61797 3.72267 5.43664 3.92533 5.31397 4.192C5.1913 4.45867 5.12997 4.78667 5.12997 5.176C5.12997 5.56 5.1913 5.888 5.31397 6.16C5.43664 6.432 5.61797 6.64 5.85797 6.784C6.1033 6.92267 6.40464 6.992 6.76197 6.992C6.93264 6.992 7.10597 6.97067 7.28197 6.928C7.4633 6.88533 7.63664 6.81867 7.80197 6.728C7.94064 6.65867 8.0633 6.63467 8.16997 6.656C8.28197 6.672 8.37264 6.72 8.44197 6.8C8.51664 6.87467 8.56197 6.96533 8.57797 7.072C8.5993 7.17867 8.58864 7.28533 8.54597 7.392C8.5033 7.49867 8.4233 7.58933 8.30597 7.664C8.10864 7.79733 7.86597 7.90133 7.57797 7.976C7.28997 8.05067 7.00464 8.088 6.72197 8.088ZM11.3379 8.088C11.1139 8.088 10.8846 8.06933 10.6499 8.032C10.4206 8 10.1992 7.952 9.98591 7.888C9.77791 7.824 9.59124 7.744 9.42591 7.648C9.30857 7.584 9.22591 7.50133 9.17791 7.4C9.12991 7.29333 9.11124 7.18667 9.12191 7.08C9.13791 6.97333 9.17791 6.88 9.24191 6.8C9.31124 6.71467 9.39657 6.66133 9.49791 6.64C9.60457 6.61333 9.72191 6.632 9.84991 6.696C10.0686 6.81867 10.3059 6.90933 10.5619 6.968C10.8232 7.02667 11.0819 7.056 11.3379 7.056C11.7272 7.056 12.0046 6.99733 12.1699 6.88C12.3352 6.75733 12.4179 6.60533 12.4179 6.424C12.4179 6.26933 12.3592 6.14667 12.2419 6.056C12.1246 5.96533 11.9192 5.888 11.6259 5.824L10.7219 5.632C10.2099 5.52533 9.82857 5.344 9.57791 5.088C9.33257 4.82667 9.20991 4.48533 9.20991 4.064C9.20991 3.79733 9.26591 3.55467 9.37791 3.336C9.48991 3.11733 9.64724 2.928 9.84991 2.768C10.0526 2.608 10.2926 2.48533 10.5699 2.4C10.8526 2.31467 11.1619 2.272 11.4979 2.272C11.7966 2.272 12.0899 2.30933 12.3779 2.384C12.6659 2.45333 12.9192 2.55733 13.1379 2.696C13.2446 2.76 13.3166 2.84267 13.3539 2.944C13.3966 3.04 13.4099 3.13867 13.3939 3.24C13.3832 3.336 13.3432 3.42133 13.2739 3.496C13.2099 3.57067 13.1272 3.61867 13.0259 3.64C12.9246 3.66133 12.8019 3.63733 12.6579 3.568C12.4819 3.47733 12.2952 3.41067 12.0979 3.368C11.9006 3.32533 11.6979 3.304 11.4899 3.304C11.2659 3.304 11.0739 3.33333 10.9139 3.392C10.7592 3.45067 10.6392 3.53333 10.5539 3.64C10.4739 3.74667 10.4339 3.86933 10.4339 4.008C10.4339 4.16267 10.4899 4.288 10.6019 4.384C10.7139 4.48 10.9086 4.55733 11.1859 4.616L12.0899 4.808C12.6126 4.92 13.0019 5.10133 13.2579 5.352C13.5139 5.59733 13.6419 5.92267 13.6419 6.328C13.6419 6.59467 13.5886 6.83733 13.4819 7.056C13.3752 7.26933 13.2206 7.45333 13.0179 7.608C12.8152 7.76267 12.5726 7.88267 12.2899 7.968C12.0072 8.048 11.6899 8.088 11.3379 8.088ZM16.6815 8.072C16.5109 8.072 16.3695 8.03467 16.2575 7.96C16.1509 7.88 16.0629 7.76 15.9935 7.6L13.9775 3.12C13.9029 2.96 13.8815 2.81867 13.9135 2.696C13.9455 2.568 14.0122 2.46933 14.1135 2.4C14.2149 2.32533 14.3375 2.288 14.4815 2.288C14.6629 2.288 14.8015 2.33067 14.8975 2.416C14.9935 2.496 15.0735 2.616 15.1375 2.776L16.9055 6.864H16.5055L18.2735 2.768C18.3429 2.608 18.4255 2.488 18.5215 2.408C18.6175 2.328 18.7509 2.288 18.9215 2.288C19.0655 2.288 19.1829 2.32533 19.2735 2.4C19.3695 2.46933 19.4282 2.568 19.4495 2.696C19.4762 2.81867 19.4549 2.96 19.3855 3.12L17.3695 7.6C17.2949 7.76 17.2042 7.88 17.0975 7.96C16.9962 8.03467 16.8575 8.072 16.6815 8.072Z"
     fill="black"
     id="path2"
     style="fill:#ffffff;fill-opacity:1" />
</svg>
