<svg width="1440" height="200" viewBox="0 0 1440 200" fill="none" xmlns="http://www.w3.org/2000/svg">
<path d="M1440 36.3635L1416 42.4431C1392 48.2953 1344 60.7953 1296 78.8067C1248 97.159 1200 121.023 1152 121.193C1104 121.023 1056 97.159 1008 87.8976C960 78.9772 912 84.659 864 96.9885C816 109.091 768 127.273 720 121.193C672 115.341 624 84.659 576 84.8294C528 84.659 480 115.341 432 112.102C384 109.091 336 72.7272 288 54.5453C240 36.3635 192 36.3635 144 39.3749C96 42.6135 48 48.2953 24 51.534L0 54.5453V200H24C48 200 96 200 144 200C192 200 240 200 288 200C336 200 384 200 432 200C480 200 528 200 576 200C624 200 672 200 720 200C768 200 816 200 864 200C912 200 960 200 1008 200C1056 200 1104 200 1152 200C1200 200 1248 200 1296 200C1344 200 1392 200 1416 200H1440V36.3635Z" fill="#9747FF" fill-opacity="0.3"/>
<path d="M0 0L24 7.43056C48 14.5833 96 29.8611 144 51.875C192 74.3055 240 103.472 288 103.681C336 103.472 384 74.3055 432 62.9861C480 52.0833 528 59.0278 576 74.0972C624 88.8889 672 111.111 720 103.681C768 96.5278 816 59.0278 864 59.2361C912 59.0278 960 96.5278 1008 92.5694C1056 88.8889 1104 44.4444 1152 22.2222C1200 0 1248 -6.62274e-07 1296 3.68055C1344 7.63889 1392 14.5833 1416 18.5417L1440 22.2222V200H1416C1392 200 1344 200 1296 200C1248 200 1200 200 1152 200C1104 200 1056 200 1008 200C960 200 912 200 864 200C816 200 768 200 720 200C672 200 624 200 576 200C528 200 480 200 432 200C384 200 336 200 288 200C240 200 192 200 144 200C96 200 48 200 24 200H0V0Z" fill="#9747FF" fill-opacity="0.3"/>
</svg>
