<svg width="1440" height="147" viewBox="0 0 1440 147" fill="none" xmlns="http://www.w3.org/2000/svg">
<path d="M0 14L24 18.9413C48 23.6979 96 33.8576 144 48.4969C192 63.4132 240 82.809 288 82.9476C336 82.809 384 63.4132 432 55.8858C480 48.6354 528 53.2535 576 63.2747C624 73.1111 672 87.8889 720 82.9476C768 78.191 816 53.2535 864 53.392C912 53.2535 960 78.191 1008 75.5587C1056 73.1111 1104 43.5556 1152 28.7778C1200 14 1248 14 1296 16.4476C1344 19.0799 1392 23.6979 1416 26.3302L1440 28.7778V147H1416C1392 147 1344 147 1296 147C1248 147 1200 147 1152 147C1104 147 1056 147 1008 147C960 147 912 147 864 147C816 147 768 147 720 147C672 147 624 147 576 147C528 147 480 147 432 147C384 147 336 147 288 147C240 147 192 147 144 147C96 147 48 147 24 147H0V14Z" fill="#9747FF" fill-opacity="0.3"/>
<path d="M1440 0L1416 5.46146C1392 10.7188 1344 21.9479 1296 38.1281C1248 54.6146 1200 76.0521 1152 76.2052C1104 76.0521 1056 54.6146 1008 46.2948C960 38.2812 912 43.3854 864 54.4615C816 65.3333 768 81.6667 720 76.2052C672 70.9479 624 43.3854 576 43.5385C528 43.3854 480 70.9479 432 68.0385C384 65.3333 336 32.6667 288 16.3333C240 0 192 -5.25713e-07 144 2.70521C96 5.61458 48 10.7187 24 13.6281L0 16.3333V147H24C48 147 96 147 144 147C192 147 240 147 288 147C336 147 384 147 432 147C480 147 528 147 576 147C624 147 672 147 720 147C768 147 816 147 864 147C912 147 960 147 1008 147C1056 147 1104 147 1152 147C1200 147 1248 147 1296 147C1344 147 1392 147 1416 147H1440V0Z" fill="#9747FF" fill-opacity="0.3"/>
</svg>
